<svg xmlns="http://www.w3.org/2000/svg" xmlns:xlink="http://www.w3.org/1999/xlink" contentStyleType="text/css" height="415px" preserveAspectRatio="none" style="width:535px;height:415px;background:#FFFFFF;" version="1.1" viewBox="0 0 535 415" width="535px" zoomAndPan="magnify"><defs/><g><rect fill="#FFFFFF" height="225.4395" style="stroke:#181818;stroke-width:1.0;" width="10" x="23.0054" y="91.4883"/><rect fill="#FFFFFF" height="204.1289" style="stroke:#181818;stroke-width:1.0;" width="10" x="238.0034" y="112.7988"/><rect fill="#FFFFFF" height="164.8184" style="stroke:#181818;stroke-width:1.0;" width="10" x="406.1265" y="152.1094"/><line style="stroke:#181818;stroke-width:0.5;stroke-dasharray:5.0,5.0;" x1="28" x2="28" y1="81.4883" y2="334.9277"/><line style="stroke:#181818;stroke-width:0.5;stroke-dasharray:5.0,5.0;" x1="242.6299" x2="242.6299" y1="81.4883" y2="334.9277"/><line style="stroke:#181818;stroke-width:0.5;stroke-dasharray:5.0,5.0;" x1="410.5391" x2="410.5391" y1="151.543" y2="334.9277"/><text fill="#000000" font-family="sans-serif" font-size="14" lengthAdjust="spacing" textLength="40.0107" x="5" y="78.5352">Editor</text><ellipse cx="28.0054" cy="13.5" fill="#E3E3E3" rx="8" ry="8" style="stroke:#181818;stroke-width:0.5;"/><path d="M28.0054,21.5 L28.0054,48.5 M15.0054,29.5 L41.0054,29.5 M28.0054,48.5 L15.0054,63.5 M28.0054,48.5 L41.0054,63.5 " fill="none" style="stroke:#181818;stroke-width:0.5;"/><text fill="#000000" font-family="sans-serif" font-size="14" lengthAdjust="spacing" textLength="40.0107" x="5" y="347.4629">Editor</text><ellipse cx="28.0054" cy="358.916" fill="#E3E3E3" rx="8" ry="8" style="stroke:#181818;stroke-width:0.5;"/><path d="M28.0054,366.916 L28.0054,393.916 M15.0054,374.916 L41.0054,374.916 M28.0054,393.916 L15.0054,408.916 M28.0054,393.916 L41.0054,408.916 " fill="none" style="stroke:#181818;stroke-width:0.5;"/><rect fill="#E3E3E3" height="30.4883" rx="2.5" ry="2.5" style="stroke:#181818;stroke-width:0.5;" width="104.7471" x="190.6299" y="50"/><text fill="#000000" font-family="sans-serif" font-size="14" lengthAdjust="spacing" textLength="90.7471" x="197.6299" y="70.5352">:CreateMapUI</text><rect fill="#E3E3E3" height="30.4883" rx="2.5" ry="2.5" style="stroke:#181818;stroke-width:0.5;" width="104.7471" x="190.6299" y="333.9277"/><text fill="#000000" font-family="sans-serif" font-size="14" lengthAdjust="spacing" textLength="90.7471" x="197.6299" y="354.4629">:CreateMapUI</text><rect fill="#E3E3E3" height="30.4883" rx="2.5" ry="2.5" style="stroke:#181818;stroke-width:0.5;" width="159.1748" x="331.5391" y="333.9277"/><text fill="#000000" font-family="sans-serif" font-size="14" lengthAdjust="spacing" textLength="145.1748" x="338.5391" y="354.4629">:CreateMapController</text><rect fill="#FFFFFF" height="225.4395" style="stroke:#181818;stroke-width:1.0;" width="10" x="23.0054" y="91.4883"/><rect fill="#FFFFFF" height="204.1289" style="stroke:#181818;stroke-width:1.0;" width="10" x="238.0034" y="112.7988"/><rect fill="#FFFFFF" height="164.8184" style="stroke:#181818;stroke-width:1.0;" width="10" x="406.1265" y="152.1094"/><polygon fill="#181818" points="226.0034,108.7988,236.0034,112.7988,226.0034,116.7988,230.0034,112.7988" style="stroke:#181818;stroke-width:1.0;"/><line style="stroke:#181818;stroke-width:1.0;" x1="33.0054" x2="232.0034" y1="112.7988" y2="112.7988"/><text fill="#000000" font-family="sans-serif" font-size="13" font-weight="bold" lengthAdjust="spacing" textLength="8.5757" x="40.0054" y="108.0566">1</text><text fill="#000000" font-family="sans-serif" font-size="13" lengthAdjust="spacing" textLength="159.9546" x="52.5811" y="108.0566">asks to create a new map</text><polygon fill="#181818" points="319.5391,138.1094,329.5391,142.1094,319.5391,146.1094,323.5391,142.1094" style="stroke:#181818;stroke-width:1.0;"/><line style="stroke:#181818;stroke-width:1.0;stroke-dasharray:2.0,2.0;" x1="248.0034" x2="325.5391" y1="142.1094" y2="142.1094"/><text fill="#000000" font-family="sans-serif" font-size="13" font-weight="bold" lengthAdjust="spacing" textLength="8.5757" x="255.0034" y="137.3672">2</text><text fill="#000000" font-family="sans-serif" font-size="13" lengthAdjust="spacing" textLength="46.96" x="267.5791" y="137.3672">create()</text><rect fill="#E3E3E3" height="30.4883" rx="2.5" ry="2.5" style="stroke:#181818;stroke-width:0.5;" width="159.1748" x="331.5391" y="120.7988"/><text fill="#000000" font-family="sans-serif" font-size="14" lengthAdjust="spacing" textLength="145.1748" x="338.5391" y="141.334">:CreateMapController</text><rect fill="none" height="39.4434" style="stroke:#000000;stroke-width:1.5;" width="110.7471" x="187.6299" y="162.2871"/><path d="M187.6299,162.2871 L250.6299,162.2871 L250.6299,169.2871 L240.6299,179.2871 L187.6299,179.2871 L187.6299,162.2871 " fill="#EEEEEE" style="stroke:#000000;stroke-width:2.0;"/><text fill="#000000" font-family="sans-serif" font-size="13" font-weight="bold" lengthAdjust="spacing" textLength="18.916" x="200.6299" y="176.8555">ref</text><text fill="#000000" font-family="sans-serif" font-size="12" lengthAdjust="spacing" textLength="78.1055" x="203.9507" y="194.8887">UI Interaction</text><rect fill="none" height="39.4434" style="stroke:#000000;stroke-width:1.5;" width="200.6973" x="328.5391" y="206.7305"/><path d="M328.5391,206.7305 L391.5391,206.7305 L391.5391,213.7305 L381.5391,223.7305 L328.5391,223.7305 L328.5391,206.7305 " fill="#EEEEEE" style="stroke:#000000;stroke-width:2.0;"/><text fill="#000000" font-family="sans-serif" font-size="13" font-weight="bold" lengthAdjust="spacing" textLength="18.916" x="341.5391" y="221.2988">ref</text><text fill="#000000" font-family="sans-serif" font-size="12" lengthAdjust="spacing" textLength="192.6973" x="332.5391" y="239.332">Repository Access and Validation</text><rect fill="none" height="39.4434" style="stroke:#000000;stroke-width:1.5;" width="165.1748" x="328.5391" y="251.1738"/><path d="M328.5391,251.1738 L391.5391,251.1738 L391.5391,258.1738 L381.5391,268.1738 L328.5391,268.1738 L328.5391,251.1738 " fill="#EEEEEE" style="stroke:#000000;stroke-width:2.0;"/><text fill="#000000" font-family="sans-serif" font-size="13" font-weight="bold" lengthAdjust="spacing" textLength="18.916" x="341.5391" y="265.7422">ref</text><text fill="#000000" font-family="sans-serif" font-size="12" lengthAdjust="spacing" textLength="150.8613" x="335.6958" y="283.7754">Map Creation and Storage</text><polygon fill="#181818" points="39.0054,312.9277,29.0054,316.9277,39.0054,320.9277,35.0054,316.9277" style="stroke:#181818;stroke-width:1.0;"/><line style="stroke:#181818;stroke-width:1.0;stroke-dasharray:2.0,2.0;" x1="33.0054" x2="242.0034" y1="316.9277" y2="316.9277"/><text fill="#000000" font-family="sans-serif" font-size="13" font-weight="bold" lengthAdjust="spacing" textLength="8.5757" x="45.0054" y="312.1855">3</text><text fill="#000000" font-family="sans-serif" font-size="13" lengthAdjust="spacing" textLength="168.4224" x="57.5811" y="312.1855">displays operation success</text><!--SRC=[VP5DQiCm48NtFiMGLHl81R8e53SBGqiXFzrFvOaZB6k492VuzXqfgUDGtDbO7httZVGKMcqTUkoWOylgvBaZYBwd8emx3bMB3UtYO0WygOYsCLD1E67D5sqREA89L1JOHxPzzqrUrYgoXyMcrl9T00ROl5NxpsqXtgYLTcWZBDQb9upqWUvGPT6XcXEKRADdO-XAA_VRzpn5dsN_5rw0r7KDgnUXmLh4RO38e38942nTe4ENjID01kT6Ah6jn9r6B9T2k3gVdkyAJqVWC_baWqc9ixAHVCAo7RV8ribozuzZypN-K1-wgRRaEAGa1tXLYa805EGN6btZ_vFccP8fv7J5dt4xuSk3pxDkkTpoNKEjWpCu160dLywSqEVZPKjD3-bEVc-lDUcaq_q0]--></g></svg>