<svg xmlns="http://www.w3.org/2000/svg" xmlns:xlink="http://www.w3.org/1999/xlink" contentStyleType="text/css" height="1118px" preserveAspectRatio="none" style="width:1717px;height:1118px;background:#FFFFFF;" version="1.1" viewBox="0 0 1717 1118" width="1717px" zoomAndPan="magnify"><defs/><g><rect fill="#FFFFFF" height="928.4941" style="stroke:#181818;stroke-width:1.0;" width="10" x="23.0054" y="91.4883"/><rect fill="#FFFFFF" height="70.7988" style="stroke:#181818;stroke-width:1.0;" width="10" x="427.6797" y="112.7988"/><rect fill="#FFFFFF" height="71.6211" style="stroke:#181818;stroke-width:1.0;" width="10" x="427.6797" y="212.9082"/><rect fill="#FFFFFF" height="706.1426" style="stroke:#181818;stroke-width:1.0;" width="10" x="427.6797" y="313.8398"/><rect fill="#FFFFFF" height="647.5215" style="stroke:#181818;stroke-width:1.0;" width="10" x="598.9043" y="343.1504"/><rect fill="#FFFFFF" height="29.3105" style="stroke:#181818;stroke-width:1.0;" width="10" x="737.3892" y="407.7715"/><rect fill="#FFFFFF" height="29.3105" style="stroke:#181818;stroke-width:1.0;" width="10" x="847.3989" y="466.3926"/><rect fill="#FFFFFF" height="436.3477" style="stroke:#181818;stroke-width:1.0;" width="10" x="955.6929" y="525.0137"/><rect fill="#FFFFFF" height="175.8633" style="stroke:#181818;stroke-width:1.0;" width="10" x="1097.041" y="554.3242"/><rect fill="#FFFFFF" height="87.9316" style="stroke:#181818;stroke-width:1.0;" width="10" x="1338.6611" y="583.6348"/><rect fill="#FFFFFF" height="113.9316" style="stroke:#181818;stroke-width:1.0;" width="10" x="1515.2178" y="759.498"/><rect fill="#FFFFFF" height="29.3105" style="stroke:#181818;stroke-width:1.0;" width="10" x="1515.2178" y="902.7402"/><line style="stroke:#181818;stroke-width:0.5;stroke-dasharray:5.0,5.0;" x1="28" x2="28" y1="81.4883" y2="1037.9824"/><line style="stroke:#181818;stroke-width:0.5;stroke-dasharray:5.0,5.0;" x1="432.3062" x2="432.3062" y1="81.4883" y2="1037.9824"/><line style="stroke:#181818;stroke-width:0.5;stroke-dasharray:5.0,5.0;" x1="603.3169" x2="603.3169" y1="151.543" y2="1037.9824"/><line style="stroke:#181818;stroke-width:0.5;stroke-dasharray:5.0,5.0;" x1="741.4917" x2="741.4917" y1="81.4883" y2="1037.9824"/><line style="stroke:#181818;stroke-width:0.5;stroke-dasharray:5.0,5.0;" x1="852.2866" x2="852.2866" y1="81.4883" y2="1037.9824"/><line style="stroke:#181818;stroke-width:0.5;stroke-dasharray:5.0,5.0;" x1="960.5112" x2="960.5112" y1="81.4883" y2="1037.9824"/><line style="stroke:#181818;stroke-width:0.5;stroke-dasharray:5.0,5.0;" x1="1101.2695" x2="1101.2695" y1="81.4883" y2="1037.9824"/><line style="stroke:#181818;stroke-width:0.5;stroke-dasharray:5.0,5.0;" x1="1342.7144" x2="1342.7144" y1="81.4883" y2="1037.9824"/><line style="stroke:#181818;stroke-width:0.5;stroke-dasharray:5.0,5.0;" x1="1426.6079" x2="1426.6079" y1="81.4883" y2="1037.9824"/><line style="stroke:#181818;stroke-width:0.5;stroke-dasharray:5.0,5.0;" x1="1519.6392" x2="1519.6392" y1="81.4883" y2="1037.9824"/><text fill="#000000" font-family="sans-serif" font-size="14" lengthAdjust="spacing" textLength="40.0107" x="5" y="78.5352">Editor</text><ellipse cx="28.0054" cy="13.5" fill="#E3E3E3" rx="8" ry="8" style="stroke:#181818;stroke-width:0.5;"/><path d="M28.0054,21.5 L28.0054,48.5 M15.0054,29.5 L41.0054,29.5 M28.0054,48.5 L15.0054,63.5 M28.0054,48.5 L41.0054,63.5 " fill="none" style="stroke:#181818;stroke-width:0.5;"/><text fill="#000000" font-family="sans-serif" font-size="14" lengthAdjust="spacing" textLength="40.0107" x="5" y="1050.5176">Editor</text><ellipse cx="28.0054" cy="1061.9707" fill="#E3E3E3" rx="8" ry="8" style="stroke:#181818;stroke-width:0.5;"/><path d="M28.0054,1069.9707 L28.0054,1096.9707 M15.0054,1077.9707 L41.0054,1077.9707 M28.0054,1096.9707 L15.0054,1111.9707 M28.0054,1096.9707 L41.0054,1111.9707 " fill="none" style="stroke:#181818;stroke-width:0.5;"/><rect fill="#E3E3E3" height="30.4883" rx="2.5" ry="2.5" style="stroke:#181818;stroke-width:0.5;" width="104.7471" x="380.3062" y="50"/><text fill="#000000" font-family="sans-serif" font-size="14" lengthAdjust="spacing" textLength="90.7471" x="387.3062" y="70.5352">:CreateMapUI</text><rect fill="#E3E3E3" height="30.4883" rx="2.5" ry="2.5" style="stroke:#181818;stroke-width:0.5;" width="104.7471" x="380.3062" y="1036.9824"/><text fill="#000000" font-family="sans-serif" font-size="14" lengthAdjust="spacing" textLength="90.7471" x="387.3062" y="1057.5176">:CreateMapUI</text><rect fill="#E3E3E3" height="30.4883" rx="2.5" ry="2.5" style="stroke:#181818;stroke-width:0.5;" width="159.1748" x="524.3169" y="1036.9824"/><text fill="#000000" font-family="sans-serif" font-size="14" lengthAdjust="spacing" textLength="145.1748" x="531.3169" y="1057.5176">:CreateMapController</text><rect fill="#E3E3E3" height="30.4883" rx="2.5" ry="2.5" style="stroke:#181818;stroke-width:0.5;" width="97.7949" x="693.4917" y="50"/><text fill="#000000" font-family="sans-serif" font-size="14" lengthAdjust="spacing" textLength="83.7949" x="700.4917" y="70.5352">Repositories</text><rect fill="#E3E3E3" height="30.4883" rx="2.5" ry="2.5" style="stroke:#181818;stroke-width:0.5;" width="97.7949" x="693.4917" y="1036.9824"/><text fill="#000000" font-family="sans-serif" font-size="14" lengthAdjust="spacing" textLength="83.7949" x="700.4917" y="1057.5176">Repositories</text><rect fill="#E3E3E3" height="46.9766" rx="2.5" ry="2.5" style="stroke:#181818;stroke-width:0.5;" width="102.2246" x="801.2866" y="33.5117"/><text fill="#000000" font-family="sans-serif" font-size="14" lengthAdjust="spacing" textLength="80.6709" x="812.0635" y="54.0469">repositories</text><text fill="#000000" font-family="sans-serif" font-size="14" lengthAdjust="spacing" textLength="88.2246" x="808.2866" y="70.5352">:Repositories</text><rect fill="#E3E3E3" height="46.9766" rx="2.5" ry="2.5" style="stroke:#181818;stroke-width:0.5;" width="102.2246" x="801.2866" y="1036.9824"/><text fill="#000000" font-family="sans-serif" font-size="14" lengthAdjust="spacing" textLength="80.6709" x="812.0635" y="1057.5176">repositories</text><text fill="#000000" font-family="sans-serif" font-size="14" lengthAdjust="spacing" textLength="88.2246" x="808.2866" y="1074.0059">:Repositories</text><rect fill="#E3E3E3" height="46.9766" rx="2.5" ry="2.5" style="stroke:#181818;stroke-width:0.5;" width="94.3633" x="913.5112" y="33.5117"/><text fill="#000000" font-family="sans-serif" font-size="14" lengthAdjust="spacing" textLength="47.332" x="937.0269" y="54.0469">Service</text><text fill="#000000" font-family="sans-serif" font-size="14" lengthAdjust="spacing" textLength="80.3633" x="920.5112" y="70.5352">:MapService</text><rect fill="#E3E3E3" height="46.9766" rx="2.5" ry="2.5" style="stroke:#181818;stroke-width:0.5;" width="94.3633" x="913.5112" y="1036.9824"/><text fill="#000000" font-family="sans-serif" font-size="14" lengthAdjust="spacing" textLength="47.332" x="937.0269" y="1057.5176">Service</text><text fill="#000000" font-family="sans-serif" font-size="14" lengthAdjust="spacing" textLength="80.3633" x="920.5112" y="1074.0059">:MapService</text><rect fill="#E3E3E3" height="30.4883" rx="2.5" ry="2.5" style="stroke:#181818;stroke-width:0.5;" width="93.543" x="1055.2695" y="50"/><text fill="#000000" font-family="sans-serif" font-size="14" lengthAdjust="spacing" textLength="79.543" x="1062.2695" y="70.5352">MapMapper</text><rect fill="#E3E3E3" height="30.4883" rx="2.5" ry="2.5" style="stroke:#181818;stroke-width:0.5;" width="93.543" x="1055.2695" y="1036.9824"/><text fill="#000000" font-family="sans-serif" font-size="14" lengthAdjust="spacing" textLength="79.543" x="1062.2695" y="1057.5176">MapMapper</text><rect fill="#E3E3E3" height="30.4883" rx="2.5" ry="2.5" style="stroke:#181818;stroke-width:0.5;" width="99.8936" x="1293.7144" y="50"/><text fill="#000000" font-family="sans-serif" font-size="14" lengthAdjust="spacing" textLength="85.8936" x="1300.7144" y="70.5352">dto:MapDTO</text><rect fill="#E3E3E3" height="30.4883" rx="2.5" ry="2.5" style="stroke:#181818;stroke-width:0.5;" width="99.8936" x="1293.7144" y="1036.9824"/><text fill="#000000" font-family="sans-serif" font-size="14" lengthAdjust="spacing" textLength="85.8936" x="1300.7144" y="1057.5176">dto:MapDTO</text><rect fill="#E3E3E3" height="46.9766" rx="2.5" ry="2.5" style="stroke:#181818;stroke-width:0.5;" width="47.0313" x="1403.6079" y="33.5117"/><text fill="#000000" font-family="sans-serif" font-size="14" lengthAdjust="spacing" textLength="29.6133" x="1412.3169" y="54.0469">map</text><text fill="#000000" font-family="sans-serif" font-size="14" lengthAdjust="spacing" textLength="33.0313" x="1410.6079" y="70.5352">:Map</text><rect fill="#E3E3E3" height="46.9766" rx="2.5" ry="2.5" style="stroke:#181818;stroke-width:0.5;" width="47.0313" x="1403.6079" y="1036.9824"/><text fill="#000000" font-family="sans-serif" font-size="14" lengthAdjust="spacing" textLength="29.6133" x="1412.3169" y="1057.5176">map</text><text fill="#000000" font-family="sans-serif" font-size="14" lengthAdjust="spacing" textLength="33.0313" x="1410.6079" y="1074.0059">:Map</text><rect fill="#E3E3E3" height="46.9766" rx="2.5" ry="2.5" style="stroke:#181818;stroke-width:0.5;" width="119.1572" x="1460.6392" y="33.5117"/><text fill="#000000" font-family="sans-serif" font-size="14" lengthAdjust="spacing" textLength="101.7393" x="1469.3481" y="54.0469">mapRepository</text><text fill="#000000" font-family="sans-serif" font-size="14" lengthAdjust="spacing" textLength="105.1572" x="1467.6392" y="70.5352">:MapRepository</text><rect fill="#E3E3E3" height="46.9766" rx="2.5" ry="2.5" style="stroke:#181818;stroke-width:0.5;" width="119.1572" x="1460.6392" y="1036.9824"/><text fill="#000000" font-family="sans-serif" font-size="14" lengthAdjust="spacing" textLength="101.7393" x="1469.3481" y="1057.5176">mapRepository</text><text fill="#000000" font-family="sans-serif" font-size="14" lengthAdjust="spacing" textLength="105.1572" x="1467.6392" y="1074.0059">:MapRepository</text><rect fill="#FFFFFF" height="928.4941" style="stroke:#181818;stroke-width:1.0;" width="10" x="23.0054" y="91.4883"/><rect fill="#FFFFFF" height="70.7988" style="stroke:#181818;stroke-width:1.0;" width="10" x="427.6797" y="112.7988"/><rect fill="#FFFFFF" height="71.6211" style="stroke:#181818;stroke-width:1.0;" width="10" x="427.6797" y="212.9082"/><rect fill="#FFFFFF" height="706.1426" style="stroke:#181818;stroke-width:1.0;" width="10" x="427.6797" y="313.8398"/><rect fill="#FFFFFF" height="647.5215" style="stroke:#181818;stroke-width:1.0;" width="10" x="598.9043" y="343.1504"/><rect fill="#FFFFFF" height="29.3105" style="stroke:#181818;stroke-width:1.0;" width="10" x="737.3892" y="407.7715"/><rect fill="#FFFFFF" height="29.3105" style="stroke:#181818;stroke-width:1.0;" width="10" x="847.3989" y="466.3926"/><rect fill="#FFFFFF" height="436.3477" style="stroke:#181818;stroke-width:1.0;" width="10" x="955.6929" y="525.0137"/><rect fill="#FFFFFF" height="175.8633" style="stroke:#181818;stroke-width:1.0;" width="10" x="1097.041" y="554.3242"/><rect fill="#FFFFFF" height="87.9316" style="stroke:#181818;stroke-width:1.0;" width="10" x="1338.6611" y="583.6348"/><rect fill="#FFFFFF" height="113.9316" style="stroke:#181818;stroke-width:1.0;" width="10" x="1515.2178" y="759.498"/><rect fill="#FFFFFF" height="29.3105" style="stroke:#181818;stroke-width:1.0;" width="10" x="1515.2178" y="902.7402"/><polygon fill="#181818" points="415.6797,108.7988,425.6797,112.7988,415.6797,116.7988,419.6797,112.7988" style="stroke:#181818;stroke-width:1.0;"/><line style="stroke:#181818;stroke-width:1.0;" x1="33.0054" x2="421.6797" y1="112.7988" y2="112.7988"/><text fill="#000000" font-family="sans-serif" font-size="13" font-weight="bold" lengthAdjust="spacing" textLength="8.5757" x="40.0054" y="108.0566">1</text><text fill="#000000" font-family="sans-serif" font-size="13" lengthAdjust="spacing" textLength="159.9546" x="52.5811" y="108.0566">asks to create a new map</text><polygon fill="#181818" points="512.3169,138.1094,522.3169,142.1094,512.3169,146.1094,516.3169,142.1094" style="stroke:#181818;stroke-width:1.0;"/><line style="stroke:#181818;stroke-width:1.0;stroke-dasharray:2.0,2.0;" x1="437.6797" x2="518.3169" y1="142.1094" y2="142.1094"/><text fill="#000000" font-family="sans-serif" font-size="13" font-weight="bold" lengthAdjust="spacing" textLength="8.5757" x="444.6797" y="137.3672">2</text><text fill="#000000" font-family="sans-serif" font-size="13" lengthAdjust="spacing" textLength="46.96" x="457.2554" y="137.3672">create()</text><rect fill="#E3E3E3" height="30.4883" rx="2.5" ry="2.5" style="stroke:#181818;stroke-width:0.5;" width="159.1748" x="524.3169" y="120.7988"/><text fill="#000000" font-family="sans-serif" font-size="14" lengthAdjust="spacing" textLength="145.1748" x="531.3169" y="141.334">:CreateMapController</text><polygon fill="#181818" points="44.0054,179.5977,34.0054,183.5977,44.0054,187.5977,40.0054,183.5977" style="stroke:#181818;stroke-width:1.0;"/><line style="stroke:#181818;stroke-width:1.0;stroke-dasharray:2.0,2.0;" x1="38.0054" x2="431.6797" y1="183.5977" y2="183.5977"/><text fill="#000000" font-family="sans-serif" font-size="13" font-weight="bold" lengthAdjust="spacing" textLength="8.5757" x="50.0054" y="178.8555">3</text><text fill="#000000" font-family="sans-serif" font-size="13" lengthAdjust="spacing" textLength="279.0874" x="62.5811" y="178.8555">requests map name, width, height and scale</text><polygon fill="#181818" points="415.6797,208.9082,425.6797,212.9082,415.6797,216.9082,419.6797,212.9082" style="stroke:#181818;stroke-width:1.0;"/><line style="stroke:#181818;stroke-width:1.0;" x1="33.0054" x2="421.6797" y1="212.9082" y2="212.9082"/><text fill="#000000" font-family="sans-serif" font-size="13" font-weight="bold" lengthAdjust="spacing" textLength="8.5757" x="40.0054" y="208.166">4</text><text fill="#000000" font-family="sans-serif" font-size="13" lengthAdjust="spacing" textLength="363.0986" x="52.5811" y="208.166">types requested data (mapName, width, height and scale)</text><line style="stroke:#181818;stroke-width:1.0;" x1="437.6797" x2="479.6797" y1="242.2188" y2="242.2188"/><line style="stroke:#181818;stroke-width:1.0;" x1="479.6797" x2="479.6797" y1="242.2188" y2="255.2188"/><line style="stroke:#181818;stroke-width:1.0;" x1="438.6797" x2="479.6797" y1="255.2188" y2="255.2188"/><polygon fill="#181818" points="448.6797,251.2188,438.6797,255.2188,448.6797,259.2188,444.6797,255.2188" style="stroke:#181818;stroke-width:1.0;"/><text fill="#000000" font-family="sans-serif" font-size="13" font-weight="bold" lengthAdjust="spacing" textLength="8.5757" x="444.6797" y="237.4766">5</text><text fill="#000000" font-family="sans-serif" font-size="13" lengthAdjust="spacing" textLength="124.6489" x="457.2554" y="237.4766">UI keeps typed data</text><polygon fill="#181818" points="44.0054,280.5293,34.0054,284.5293,44.0054,288.5293,40.0054,284.5293" style="stroke:#181818;stroke-width:1.0;"/><line style="stroke:#181818;stroke-width:1.0;stroke-dasharray:2.0,2.0;" x1="38.0054" x2="431.6797" y1="284.5293" y2="284.5293"/><text fill="#000000" font-family="sans-serif" font-size="13" font-weight="bold" lengthAdjust="spacing" textLength="8.5757" x="50.0054" y="279.7871">6</text><text fill="#000000" font-family="sans-serif" font-size="13" lengthAdjust="spacing" textLength="260.146" x="62.5811" y="279.7871">shows all data and requests confirmation</text><polygon fill="#181818" points="415.6797,309.8398,425.6797,313.8398,415.6797,317.8398,419.6797,313.8398" style="stroke:#181818;stroke-width:1.0;"/><line style="stroke:#181818;stroke-width:1.0;" x1="33.0054" x2="421.6797" y1="313.8398" y2="313.8398"/><text fill="#000000" font-family="sans-serif" font-size="13" font-weight="bold" lengthAdjust="spacing" textLength="8.5757" x="40.0054" y="309.0977">7</text><text fill="#000000" font-family="sans-serif" font-size="13" lengthAdjust="spacing" textLength="86.8486" x="52.5811" y="309.0977">confirms data</text><polygon fill="#181818" points="586.9043,339.1504,596.9043,343.1504,586.9043,347.1504,590.9043,343.1504" style="stroke:#181818;stroke-width:1.0;"/><line style="stroke:#181818;stroke-width:1.0;" x1="437.6797" x2="592.9043" y1="343.1504" y2="343.1504"/><text fill="#000000" font-family="sans-serif" font-size="13" font-weight="bold" lengthAdjust="spacing" textLength="8.5757" x="444.6797" y="338.4082">8</text><text fill="#000000" font-family="sans-serif" font-size="13" lengthAdjust="spacing" textLength="94.5483" x="457.2554" y="338.4082">createMap(dto)</text><path d="M613,356.1504 L613,381.1504 L1079,381.1504 L1079,366.1504 L1069,356.1504 L613,356.1504 " fill="#FAFAFA" style="stroke:#181818;stroke-width:0.5;"/><path d="M1069,356.1504 L1069,366.1504 L1079,366.1504 L1069,356.1504 " fill="#FAFAFA" style="stroke:#181818;stroke-width:0.5;"/><text fill="#000000" font-family="sans-serif" font-size="13" lengthAdjust="spacing" textLength="445.0977" x="619" y="373.7188">DTO has all required data (mapName, width, height, scaleInKmPerCell)</text><polygon fill="#181818" points="725.3892,403.7715,735.3892,407.7715,725.3892,411.7715,729.3892,407.7715" style="stroke:#181818;stroke-width:1.0;"/><line style="stroke:#181818;stroke-width:1.0;" x1="608.9043" x2="731.3892" y1="407.7715" y2="407.7715"/><text fill="#000000" font-family="sans-serif" font-size="13" font-weight="bold" lengthAdjust="spacing" textLength="8.5757" x="615.9043" y="403.0293">9</text><text fill="#000000" font-family="sans-serif" font-size="13" lengthAdjust="spacing" textLength="81.1167" x="628.48" y="403.0293">getInstance()</text><polygon fill="#181818" points="619.9043,433.082,609.9043,437.082,619.9043,441.082,615.9043,437.082" style="stroke:#181818;stroke-width:1.0;"/><line style="stroke:#181818;stroke-width:1.0;stroke-dasharray:2.0,2.0;" x1="613.9043" x2="741.3892" y1="437.082" y2="437.082"/><text fill="#000000" font-family="sans-serif" font-size="13" font-weight="bold" lengthAdjust="spacing" textLength="17.1514" x="625.9043" y="432.3398">10</text><text fill="#000000" font-family="sans-serif" font-size="13" lengthAdjust="spacing" textLength="74.9087" x="647.0557" y="432.3398">repositories</text><polygon fill="#181818" points="835.3989,462.3926,845.3989,466.3926,835.3989,470.3926,839.3989,466.3926" style="stroke:#181818;stroke-width:1.0;"/><line style="stroke:#181818;stroke-width:1.0;" x1="608.9043" x2="841.3989" y1="466.3926" y2="466.3926"/><text fill="#000000" font-family="sans-serif" font-size="13" font-weight="bold" lengthAdjust="spacing" textLength="17.1514" x="615.9043" y="461.6504">11</text><text fill="#000000" font-family="sans-serif" font-size="13" lengthAdjust="spacing" textLength="122.1987" x="637.0557" y="461.6504">getMapRepository()</text><polygon fill="#181818" points="619.9043,491.7031,609.9043,495.7031,619.9043,499.7031,615.9043,495.7031" style="stroke:#181818;stroke-width:1.0;"/><line style="stroke:#181818;stroke-width:1.0;stroke-dasharray:2.0,2.0;" x1="613.9043" x2="851.3989" y1="495.7031" y2="495.7031"/><text fill="#000000" font-family="sans-serif" font-size="13" font-weight="bold" lengthAdjust="spacing" textLength="17.1514" x="625.9043" y="490.9609">12</text><text fill="#000000" font-family="sans-serif" font-size="13" lengthAdjust="spacing" textLength="94.4722" x="647.0557" y="490.9609">mapRepository</text><polygon fill="#181818" points="943.6929,521.0137,953.6929,525.0137,943.6929,529.0137,947.6929,525.0137" style="stroke:#181818;stroke-width:1.0;"/><line style="stroke:#181818;stroke-width:1.0;" x1="608.9043" x2="949.6929" y1="525.0137" y2="525.0137"/><text fill="#000000" font-family="sans-serif" font-size="13" font-weight="bold" lengthAdjust="spacing" textLength="17.1514" x="615.9043" y="520.2715">13</text><text fill="#000000" font-family="sans-serif" font-size="13" lengthAdjust="spacing" textLength="140.6069" x="637.0557" y="520.2715">map = createMap(dto)</text><polygon fill="#181818" points="1085.041,550.3242,1095.041,554.3242,1085.041,558.3242,1089.041,554.3242" style="stroke:#181818;stroke-width:1.0;"/><line style="stroke:#181818;stroke-width:1.0;" x1="965.6929" x2="1091.041" y1="554.3242" y2="554.3242"/><text fill="#000000" font-family="sans-serif" font-size="13" font-weight="bold" lengthAdjust="spacing" textLength="17.1514" x="972.6929" y="549.582">14</text><text fill="#000000" font-family="sans-serif" font-size="13" lengthAdjust="spacing" textLength="91.1968" x="993.8442" y="549.582">toDomain(dto)</text><polygon fill="#181818" points="1326.6611,579.6348,1336.6611,583.6348,1326.6611,587.6348,1330.6611,583.6348" style="stroke:#181818;stroke-width:1.0;"/><line style="stroke:#181818;stroke-width:1.0;" x1="1107.041" x2="1332.6611" y1="583.6348" y2="583.6348"/><text fill="#000000" font-family="sans-serif" font-size="13" font-weight="bold" lengthAdjust="spacing" textLength="17.1514" x="1114.041" y="578.8926">15</text><text fill="#000000" font-family="sans-serif" font-size="13" lengthAdjust="spacing" textLength="118.0156" x="1135.1924" y="578.8926">name = getName()</text><polygon fill="#181818" points="1326.6611,608.9453,1336.6611,612.9453,1326.6611,616.9453,1330.6611,612.9453" style="stroke:#181818;stroke-width:1.0;"/><line style="stroke:#181818;stroke-width:1.0;" x1="1107.041" x2="1332.6611" y1="612.9453" y2="612.9453"/><text fill="#000000" font-family="sans-serif" font-size="13" font-weight="bold" lengthAdjust="spacing" textLength="17.1514" x="1114.041" y="608.2031">16</text><text fill="#000000" font-family="sans-serif" font-size="13" lengthAdjust="spacing" textLength="118.1045" x="1135.1924" y="608.2031">width = getWidth()</text><polygon fill="#181818" points="1326.6611,638.2559,1336.6611,642.2559,1326.6611,646.2559,1330.6611,642.2559" style="stroke:#181818;stroke-width:1.0;"/><line style="stroke:#181818;stroke-width:1.0;" x1="1107.041" x2="1332.6611" y1="642.2559" y2="642.2559"/><text fill="#000000" font-family="sans-serif" font-size="13" font-weight="bold" lengthAdjust="spacing" textLength="17.1514" x="1114.041" y="637.5137">17</text><text fill="#000000" font-family="sans-serif" font-size="13" lengthAdjust="spacing" textLength="128.9209" x="1135.1924" y="637.5137">height = getHeight()</text><polygon fill="#181818" points="1331.6611,667.5664,1341.6611,671.5664,1331.6611,675.5664,1335.6611,671.5664" style="stroke:#181818;stroke-width:1.0;"/><line style="stroke:#181818;stroke-width:1.0;" x1="1107.041" x2="1337.6611" y1="671.5664" y2="671.5664"/><text fill="#000000" font-family="sans-serif" font-size="13" font-weight="bold" lengthAdjust="spacing" textLength="17.1514" x="1114.041" y="666.8242">18</text><text fill="#000000" font-family="sans-serif" font-size="13" lengthAdjust="spacing" textLength="186.4688" x="1135.1924" y="666.8242">scale = getScaleInKmPerCell()</text><polygon fill="#181818" points="1415.1235,696.877,1425.1235,700.877,1415.1235,704.877,1419.1235,700.877" style="stroke:#181818;stroke-width:1.0;"/><line style="stroke:#181818;stroke-width:1.0;" x1="1107.041" x2="1421.1235" y1="700.877" y2="700.877"/><text fill="#000000" font-family="sans-serif" font-size="13" font-weight="bold" lengthAdjust="spacing" textLength="17.1514" x="1114.041" y="696.1348">19</text><text fill="#000000" font-family="sans-serif" font-size="13" lengthAdjust="spacing" textLength="212.7227" x="1135.1924" y="696.1348">create(name, width, height, scale)</text><polygon fill="#181818" points="976.6929,726.1875,966.6929,730.1875,976.6929,734.1875,972.6929,730.1875" style="stroke:#181818;stroke-width:1.0;"/><line style="stroke:#181818;stroke-width:1.0;stroke-dasharray:2.0,2.0;" x1="970.6929" x2="1101.041" y1="730.1875" y2="730.1875"/><text fill="#000000" font-family="sans-serif" font-size="13" font-weight="bold" lengthAdjust="spacing" textLength="17.1514" x="982.6929" y="725.4453">20</text><text fill="#000000" font-family="sans-serif" font-size="13" lengthAdjust="spacing" textLength="27.498" x="1003.8442" y="725.4453">map</text><polygon fill="#181818" points="1503.2178,755.498,1513.2178,759.498,1503.2178,763.498,1507.2178,759.498" style="stroke:#181818;stroke-width:1.0;"/><line style="stroke:#181818;stroke-width:1.0;" x1="965.6929" x2="1509.2178" y1="759.498" y2="759.498"/><text fill="#000000" font-family="sans-serif" font-size="13" font-weight="bold" lengthAdjust="spacing" textLength="17.1514" x="972.6929" y="754.7559">21</text><text fill="#000000" font-family="sans-serif" font-size="13" lengthAdjust="spacing" textLength="165.4263" x="993.8442" y="754.7559">getMapByName(dto.name)</text><line style="stroke:#181818;stroke-width:1.0;" x1="1525.2178" x2="1567.2178" y1="788.8086" y2="788.8086"/><line style="stroke:#181818;stroke-width:1.0;" x1="1567.2178" x2="1567.2178" y1="788.8086" y2="801.8086"/><line style="stroke:#181818;stroke-width:1.0;" x1="1526.2178" x2="1567.2178" y1="801.8086" y2="801.8086"/><polygon fill="#181818" points="1536.2178,797.8086,1526.2178,801.8086,1536.2178,805.8086,1532.2178,801.8086" style="stroke:#181818;stroke-width:1.0;"/><text fill="#000000" font-family="sans-serif" font-size="13" font-weight="bold" lengthAdjust="spacing" textLength="17.1514" x="1532.2178" y="784.0664">22</text><text fill="#000000" font-family="sans-serif" font-size="13" lengthAdjust="spacing" textLength="157.168" x="1553.3691" y="784.0664">validateName(mapName)</text><line style="stroke:#181818;stroke-width:1.0;stroke-dasharray:2.0,2.0;" x1="1525.2178" x2="1567.2178" y1="831.1191" y2="831.1191"/><line style="stroke:#181818;stroke-width:1.0;stroke-dasharray:2.0,2.0;" x1="1567.2178" x2="1567.2178" y1="831.1191" y2="844.1191"/><line style="stroke:#181818;stroke-width:1.0;stroke-dasharray:2.0,2.0;" x1="1526.2178" x2="1567.2178" y1="844.1191" y2="844.1191"/><polygon fill="#181818" points="1536.2178,840.1191,1526.2178,844.1191,1536.2178,848.1191,1532.2178,844.1191" style="stroke:#181818;stroke-width:1.0;"/><text fill="#000000" font-family="sans-serif" font-size="13" font-weight="bold" lengthAdjust="spacing" textLength="17.1514" x="1532.2178" y="826.377">23</text><text fill="#000000" font-family="sans-serif" font-size="13" lengthAdjust="spacing" textLength="25.4922" x="1553.3691" y="826.377">true</text><polygon fill="#181818" points="976.6929,869.4297,966.6929,873.4297,976.6929,877.4297,972.6929,873.4297" style="stroke:#181818;stroke-width:1.0;"/><line style="stroke:#181818;stroke-width:1.0;stroke-dasharray:2.0,2.0;" x1="970.6929" x2="1519.2178" y1="873.4297" y2="873.4297"/><text fill="#000000" font-family="sans-serif" font-size="13" font-weight="bold" lengthAdjust="spacing" textLength="17.1514" x="982.6929" y="868.6875">24</text><text fill="#000000" font-family="sans-serif" font-size="13" lengthAdjust="spacing" textLength="63.6606" x="1003.8442" y="868.6875">mapName</text><polygon fill="#181818" points="1503.2178,898.7402,1513.2178,902.7402,1503.2178,906.7402,1507.2178,902.7402" style="stroke:#181818;stroke-width:1.0;"/><line style="stroke:#181818;stroke-width:1.0;" x1="965.6929" x2="1509.2178" y1="902.7402" y2="902.7402"/><text fill="#000000" font-family="sans-serif" font-size="13" font-weight="bold" lengthAdjust="spacing" textLength="17.1514" x="972.6929" y="897.998">25</text><text fill="#000000" font-family="sans-serif" font-size="13" lengthAdjust="spacing" textLength="86.0552" x="993.8442" y="897.998">addMap(map)</text><polygon fill="#181818" points="976.6929,928.0508,966.6929,932.0508,976.6929,936.0508,972.6929,932.0508" style="stroke:#181818;stroke-width:1.0;"/><line style="stroke:#181818;stroke-width:1.0;stroke-dasharray:2.0,2.0;" x1="970.6929" x2="1519.2178" y1="932.0508" y2="932.0508"/><text fill="#000000" font-family="sans-serif" font-size="13" font-weight="bold" lengthAdjust="spacing" textLength="17.1514" x="982.6929" y="927.3086">26</text><text fill="#000000" font-family="sans-serif" font-size="13" lengthAdjust="spacing" textLength="48.5088" x="1003.8442" y="927.3086">success</text><polygon fill="#181818" points="619.9043,957.3613,609.9043,961.3613,619.9043,965.3613,615.9043,961.3613" style="stroke:#181818;stroke-width:1.0;"/><line style="stroke:#181818;stroke-width:1.0;stroke-dasharray:2.0,2.0;" x1="613.9043" x2="959.6929" y1="961.3613" y2="961.3613"/><text fill="#000000" font-family="sans-serif" font-size="13" font-weight="bold" lengthAdjust="spacing" textLength="17.1514" x="625.9043" y="956.6191">27</text><text fill="#000000" font-family="sans-serif" font-size="13" lengthAdjust="spacing" textLength="27.498" x="647.0557" y="956.6191">map</text><polygon fill="#181818" points="448.6797,986.6719,438.6797,990.6719,448.6797,994.6719,444.6797,990.6719" style="stroke:#181818;stroke-width:1.0;"/><line style="stroke:#181818;stroke-width:1.0;stroke-dasharray:2.0,2.0;" x1="442.6797" x2="602.9043" y1="990.6719" y2="990.6719"/><text fill="#000000" font-family="sans-serif" font-size="13" font-weight="bold" lengthAdjust="spacing" textLength="17.1514" x="454.6797" y="985.9297">28</text><text fill="#000000" font-family="sans-serif" font-size="13" lengthAdjust="spacing" textLength="27.498" x="475.8311" y="985.9297">map</text><polygon fill="#181818" points="39.0054,1015.9824,29.0054,1019.9824,39.0054,1023.9824,35.0054,1019.9824" style="stroke:#181818;stroke-width:1.0;"/><line style="stroke:#181818;stroke-width:1.0;stroke-dasharray:2.0,2.0;" x1="33.0054" x2="431.6797" y1="1019.9824" y2="1019.9824"/><text fill="#000000" font-family="sans-serif" font-size="13" font-weight="bold" lengthAdjust="spacing" textLength="17.1514" x="45.0054" y="1015.2402">29</text><text fill="#000000" font-family="sans-serif" font-size="13" lengthAdjust="spacing" textLength="168.4224" x="66.1567" y="1015.2402">displays operation success</text><!--SRC=[dLPTRzem57tFhxZg4rJjVW3I9cqqsgAr1G7RNYPLNd8B5ecTsQQ8VxzhEmbncWGq2u6Zt7DyxgVHUovAfbW1XHGotIbP81Xrm4WtRqgMxjaMr-QK8oXC3HFRl6sWTooJHowsyCfoZL743aQAG_475UrJ8nNSn1cdtnjW6kA7PBDOHOGrFEKb4mPkPdE5pE0JAtyapkX7CcGmby8ecUVesUQRrMDeki9IQdiQH-rCLl5oiGvjLClcjvZrGrxMoVFNntYpU0x1QrHlF4N2aPpgmQ7MyUfdCez3QxAXJrd9VVgyNCOTvpCZBTF3Pk5Cw3TyNx3IdrKpl7lTw3zvm_Dp3Ncn7jbay3SAOvs326ZvFTn_eg33ZEpt6eo4r0KS60Wy0ftXR1i2oWzKYr3t1BQ9kBqb0W-SJ1k331kOorONMGcOKN7zFQ0ssXu7WXLu1qUUcTqTx91lTmQOo42dZAglmqjoeeuVvbIYhYanWumP1XDYVXuZdaPHrqUhikAahprYgHsvfupw7D4xUTJ0yjoVQjaRtr8fNhagcE5IHECkLARQ7zIloqQq2JgbVaBLv4Cl9DagvvvyzP67rg8oWntpAgquhYu4wSv7A17VYoMgEURvESL87jhpmY89i-sKacBNMoHvYoOHcgP9sYwM1koxjgtO0-_FJhUxkA_QF4M_W7DpUob1rmpgQOs4TyfQZ2sDGNSEYcpnHW5phRaQBPuGFdRp7M0QwdeUGMVLPCJhvv5j5_aW2yR5kNvwAQlvzSx0hegBM6rjpLm7arGAhgscoRGNr33RiNSDgwj9J_lBRWTukx2gqHtkczjV2NH5xt7hJlqFCBIIUzafsfrdfXZikd6jtGA9HYJL6RnG5Ux2Q5hZoycba6hZWzKuNY3-hkdHwZb3_ZUMSvewwFYhmJCT0OTezrTbr3Y8YoM_41il_ihWi2opBKZC_nEH4QtwaAQezLLQ1wK6GoWQeAbdH6TArbTGZUozmxlNNiPrcREJ1ab_Tzm5rpZIkUXQZnxz3m00]--></g></svg>