<svg xmlns="http://www.w3.org/2000/svg" xmlns:xlink="http://www.w3.org/1999/xlink" contentStyleType="text/css" height="412px" preserveAspectRatio="none" style="width:649px;height:412px;background:#FFFFFF;" version="1.1" viewBox="0 0 649 412" width="649px" zoomAndPan="magnify"><defs/><g><rect fill="#FFFFFF" height="222.3516" style="stroke:#181818;stroke-width:1.0;" width="10" x="23.0054" y="91.4883"/><rect fill="#FFFFFF" height="70.7988" style="stroke:#181818;stroke-width:1.0;" width="10" x="387.9878" y="112.7988"/><rect fill="#FFFFFF" height="71.6211" style="stroke:#181818;stroke-width:1.0;" width="10" x="387.9878" y="212.9082"/><line style="stroke:#181818;stroke-width:0.5;stroke-dasharray:5.0,5.0;" x1="28" x2="28" y1="81.4883" y2="331.8398"/><line style="stroke:#181818;stroke-width:0.5;stroke-dasharray:5.0,5.0;" x1="392.6143" x2="392.6143" y1="81.4883" y2="331.8398"/><line style="stroke:#181818;stroke-width:0.5;stroke-dasharray:5.0,5.0;" x1="563.625" x2="563.625" y1="151.543" y2="331.8398"/><text fill="#000000" font-family="sans-serif" font-size="14" lengthAdjust="spacing" textLength="40.0107" x="5" y="78.5352">Editor</text><ellipse cx="28.0054" cy="13.5" fill="#E3E3E3" rx="8" ry="8" style="stroke:#181818;stroke-width:0.5;"/><path d="M28.0054,21.5 L28.0054,48.5 M15.0054,29.5 L41.0054,29.5 M28.0054,48.5 L15.0054,63.5 M28.0054,48.5 L41.0054,63.5 " fill="none" style="stroke:#181818;stroke-width:0.5;"/><text fill="#000000" font-family="sans-serif" font-size="14" lengthAdjust="spacing" textLength="40.0107" x="5" y="344.375">Editor</text><ellipse cx="28.0054" cy="355.8281" fill="#E3E3E3" rx="8" ry="8" style="stroke:#181818;stroke-width:0.5;"/><path d="M28.0054,363.8281 L28.0054,390.8281 M15.0054,371.8281 L41.0054,371.8281 M28.0054,390.8281 L15.0054,405.8281 M28.0054,390.8281 L41.0054,405.8281 " fill="none" style="stroke:#181818;stroke-width:0.5;"/><rect fill="#E3E3E3" height="30.4883" rx="2.5" ry="2.5" style="stroke:#181818;stroke-width:0.5;" width="104.7471" x="340.6143" y="50"/><text fill="#000000" font-family="sans-serif" font-size="14" lengthAdjust="spacing" textLength="90.7471" x="347.6143" y="70.5352">:CreateMapUI</text><rect fill="#E3E3E3" height="30.4883" rx="2.5" ry="2.5" style="stroke:#181818;stroke-width:0.5;" width="104.7471" x="340.6143" y="330.8398"/><text fill="#000000" font-family="sans-serif" font-size="14" lengthAdjust="spacing" textLength="90.7471" x="347.6143" y="351.375">:CreateMapUI</text><rect fill="#E3E3E3" height="30.4883" rx="2.5" ry="2.5" style="stroke:#181818;stroke-width:0.5;" width="159.1748" x="484.625" y="330.8398"/><text fill="#000000" font-family="sans-serif" font-size="14" lengthAdjust="spacing" textLength="145.1748" x="491.625" y="351.375">:CreateMapController</text><rect fill="#FFFFFF" height="222.3516" style="stroke:#181818;stroke-width:1.0;" width="10" x="23.0054" y="91.4883"/><rect fill="#FFFFFF" height="70.7988" style="stroke:#181818;stroke-width:1.0;" width="10" x="387.9878" y="112.7988"/><rect fill="#FFFFFF" height="71.6211" style="stroke:#181818;stroke-width:1.0;" width="10" x="387.9878" y="212.9082"/><polygon fill="#181818" points="375.9878,108.7988,385.9878,112.7988,375.9878,116.7988,379.9878,112.7988" style="stroke:#181818;stroke-width:1.0;"/><line style="stroke:#181818;stroke-width:1.0;" x1="33.0054" x2="381.9878" y1="112.7988" y2="112.7988"/><text fill="#000000" font-family="sans-serif" font-size="13" font-weight="bold" lengthAdjust="spacing" textLength="8.5757" x="40.0054" y="108.0566">1</text><text fill="#000000" font-family="sans-serif" font-size="13" lengthAdjust="spacing" textLength="159.9546" x="52.5811" y="108.0566">asks to create a new map</text><polygon fill="#181818" points="472.625,138.1094,482.625,142.1094,472.625,146.1094,476.625,142.1094" style="stroke:#181818;stroke-width:1.0;"/><line style="stroke:#181818;stroke-width:1.0;stroke-dasharray:2.0,2.0;" x1="397.9878" x2="478.625" y1="142.1094" y2="142.1094"/><text fill="#000000" font-family="sans-serif" font-size="13" font-weight="bold" lengthAdjust="spacing" textLength="8.5757" x="404.9878" y="137.3672">2</text><text fill="#000000" font-family="sans-serif" font-size="13" lengthAdjust="spacing" textLength="46.96" x="417.5635" y="137.3672">create()</text><rect fill="#E3E3E3" height="30.4883" rx="2.5" ry="2.5" style="stroke:#181818;stroke-width:0.5;" width="159.1748" x="484.625" y="120.7988"/><text fill="#000000" font-family="sans-serif" font-size="14" lengthAdjust="spacing" textLength="145.1748" x="491.625" y="141.334">:CreateMapController</text><polygon fill="#181818" points="44.0054,179.5977,34.0054,183.5977,44.0054,187.5977,40.0054,183.5977" style="stroke:#181818;stroke-width:1.0;"/><line style="stroke:#181818;stroke-width:1.0;stroke-dasharray:2.0,2.0;" x1="38.0054" x2="391.9878" y1="183.5977" y2="183.5977"/><text fill="#000000" font-family="sans-serif" font-size="13" font-weight="bold" lengthAdjust="spacing" textLength="8.5757" x="50.0054" y="178.8555">3</text><text fill="#000000" font-family="sans-serif" font-size="13" lengthAdjust="spacing" textLength="239.3955" x="62.5811" y="178.8555">requests map name, width and height</text><polygon fill="#181818" points="375.9878,208.9082,385.9878,212.9082,375.9878,216.9082,379.9878,212.9082" style="stroke:#181818;stroke-width:1.0;"/><line style="stroke:#181818;stroke-width:1.0;" x1="33.0054" x2="381.9878" y1="212.9082" y2="212.9082"/><text fill="#000000" font-family="sans-serif" font-size="13" font-weight="bold" lengthAdjust="spacing" textLength="8.5757" x="40.0054" y="208.166">4</text><text fill="#000000" font-family="sans-serif" font-size="13" lengthAdjust="spacing" textLength="323.4067" x="52.5811" y="208.166">types requested data (mapName, width and height)</text><line style="stroke:#181818;stroke-width:1.0;" x1="397.9878" x2="439.9878" y1="242.2188" y2="242.2188"/><line style="stroke:#181818;stroke-width:1.0;" x1="439.9878" x2="439.9878" y1="242.2188" y2="255.2188"/><line style="stroke:#181818;stroke-width:1.0;" x1="398.9878" x2="439.9878" y1="255.2188" y2="255.2188"/><polygon fill="#181818" points="408.9878,251.2188,398.9878,255.2188,408.9878,259.2188,404.9878,255.2188" style="stroke:#181818;stroke-width:1.0;"/><text fill="#000000" font-family="sans-serif" font-size="13" font-weight="bold" lengthAdjust="spacing" textLength="8.5757" x="404.9878" y="237.4766">5</text><text fill="#000000" font-family="sans-serif" font-size="13" lengthAdjust="spacing" textLength="124.6489" x="417.5635" y="237.4766">UI keeps typed data</text><polygon fill="#181818" points="44.0054,280.5293,34.0054,284.5293,44.0054,288.5293,40.0054,284.5293" style="stroke:#181818;stroke-width:1.0;"/><line style="stroke:#181818;stroke-width:1.0;stroke-dasharray:2.0,2.0;" x1="38.0054" x2="391.9878" y1="284.5293" y2="284.5293"/><text fill="#000000" font-family="sans-serif" font-size="13" font-weight="bold" lengthAdjust="spacing" textLength="8.5757" x="50.0054" y="279.7871">6</text><text fill="#000000" font-family="sans-serif" font-size="13" lengthAdjust="spacing" textLength="260.146" x="62.5811" y="279.7871">shows all data and requests confirmation</text><polygon fill="#181818" points="380.9878,309.8398,390.9878,313.8398,380.9878,317.8398,384.9878,313.8398" style="stroke:#181818;stroke-width:1.0;"/><line style="stroke:#181818;stroke-width:1.0;" x1="28.0054" x2="386.9878" y1="313.8398" y2="313.8398"/><text fill="#000000" font-family="sans-serif" font-size="13" font-weight="bold" lengthAdjust="spacing" textLength="8.5757" x="35.0054" y="309.0977">7</text><text fill="#000000" font-family="sans-serif" font-size="13" lengthAdjust="spacing" textLength="86.8486" x="47.5811" y="309.0977">confirms data</text><!--SRC=[ZP1DRi8m48NtESM85Q1oWIoweIoG-YDHEC3K7X8h_gizQSJjEoGXGWYgUc5RydlVc-VS61yneGCNV51r2ew0Kqj5dbuYgWOh-kIJ9KYa67rbhmMvHXqwuoiueirKOCl1j-wBKb6Wuf1Wjj56pXbWXitBTl-nAyJAHfc8dc5MhXCXqnl6mxON7RQF1ElWEGLhQQ2jzxlNFiNyoFi53hA6AwoU1GQbQ9iC743r843mr873s6idl-J2kCIr4lCvOBaKm62SBoQ1fidMJt5Z7FDB-RBlbZBdSnfuTFG4dT5S0teDDPcgvkA69sFSwy2dIFd28mqQ6M4ksFUxrCMVtKQcR0rHp3ryG3viaklGPK1hX-HpqbHE1NyqoI6RuFzPPxJa8VHAF-X-0G00]--></g></svg>