<svg xmlns="http://www.w3.org/2000/svg" xmlns:xlink="http://www.w3.org/1999/xlink" contentStyleType="text/css" height="906px" preserveAspectRatio="none" style="width:675px;height:906px;background:#FFFFFF;" version="1.1" viewBox="0 0 675 906" width="675px" zoomAndPan="magnify"><defs/><g><!--class CreateMapUI--><g id="elem_CreateMapUI"><rect codeLine="5" fill="#F1F1F1" height="113.9531" id="CreateMapUI" rx="2.5" ry="2.5" style="stroke:#181818;stroke-width:0.5;" width="169.4043" x="163.92" y="39.98"/><ellipse cx="201.9091" cy="55.98" fill="#ADD1B2" rx="11" ry="11" style="stroke:#181818;stroke-width:1.0;"/><path d="M204.8823,61.6231 Q204.3012,61.9219 203.662,62.0713 Q203.0229,62.2207 202.3173,62.2207 Q199.8105,62.2207 198.4907,60.5689 Q197.1708,58.917 197.1708,55.7959 Q197.1708,52.6665 198.4907,51.0147 Q199.8105,49.3628 202.3173,49.3628 Q203.0229,49.3628 203.6703,49.5122 Q204.3178,49.6616 204.8823,49.9605 L204.8823,52.6831 Q204.2514,52.1021 203.6579,51.8323 Q203.0644,51.5625 202.4335,51.5625 Q201.0888,51.5625 200.404,52.6292 Q199.7192,53.6958 199.7192,55.7959 Q199.7192,57.8877 200.404,58.9544 Q201.0888,60.021 202.4335,60.021 Q203.0644,60.021 203.6579,59.7512 Q204.2514,59.4815 204.8823,58.9004 Z " fill="#000000"/><text fill="#000000" font-family="sans-serif" font-size="14" lengthAdjust="spacing" textLength="86.3174" x="221.0178" y="61.271">CreateMapUI</text><line style="stroke:#181818;stroke-width:0.5;" x1="164.92" x2="332.3243" y1="71.98" y2="71.98"/><line style="stroke:#181818;stroke-width:0.5;" x1="164.92" x2="332.3243" y1="79.98" y2="79.98"/><text fill="#000000" font-family="sans-serif" font-size="14" lengthAdjust="spacing" textLength="61.7012" x="169.92" y="97.5152">+create()</text><text fill="#000000" font-family="sans-serif" font-size="14" lengthAdjust="spacing" textLength="131.2227" x="169.92" y="114.0034">+requestMapData()</text><text fill="#000000" font-family="sans-serif" font-size="14" lengthAdjust="spacing" textLength="157.4043" x="169.92" y="130.4917">+displayConfirmation()</text><text fill="#000000" font-family="sans-serif" font-size="14" lengthAdjust="spacing" textLength="120.7773" x="169.92" y="146.98">+displaySuccess()</text></g><!--class CreateMapController--><g id="elem_CreateMapController"><rect codeLine="12" fill="#F1F1F1" height="64.4883" id="CreateMapController" rx="2.5" ry="2.5" style="stroke:#181818;stroke-width:0.5;" width="230.0869" x="133.57" y="246.91"/><ellipse cx="174.3738" cy="262.91" fill="#ADD1B2" rx="11" ry="11" style="stroke:#181818;stroke-width:1.0;"/><path d="M177.347,268.5531 Q176.7659,268.8519 176.1267,269.0013 Q175.4876,269.1507 174.782,269.1507 Q172.2752,269.1507 170.9554,267.4989 Q169.6355,265.847 169.6355,262.7259 Q169.6355,259.5965 170.9554,257.9447 Q172.2752,256.2928 174.782,256.2928 Q175.4876,256.2928 176.135,256.4422 Q176.7825,256.5916 177.347,256.8905 L177.347,259.6131 Q176.7161,259.0321 176.1226,258.7623 Q175.5291,258.4925 174.8982,258.4925 Q173.5535,258.4925 172.8687,259.5592 Q172.1839,260.6258 172.1839,262.7259 Q172.1839,264.8177 172.8687,265.8844 Q173.5535,266.951 174.8982,266.951 Q175.5291,266.951 176.1226,266.6812 Q176.7161,266.4115 177.347,265.8304 Z " fill="#000000"/><text fill="#000000" font-family="sans-serif" font-size="14" lengthAdjust="spacing" textLength="140.7451" x="194.108" y="268.201">CreateMapController</text><line style="stroke:#181818;stroke-width:0.5;" x1="134.57" x2="362.6569" y1="278.91" y2="278.91"/><line style="stroke:#181818;stroke-width:0.5;" x1="134.57" x2="362.6569" y1="286.91" y2="286.91"/><text fill="#000000" font-family="sans-serif" font-size="14" lengthAdjust="spacing" textLength="218.0869" x="139.57" y="304.4452">+createMap(dto: MapDTO): Map</text></g><!--class MapDTO--><g id="elem_MapDTO"><rect codeLine="16" fill="#F1F1F1" height="179.9063" id="MapDTO" rx="2.5" ry="2.5" style="stroke:#181818;stroke-width:0.5;" width="225.6846" x="368.78" y="7"/><ellipse cx="447.9641" cy="23" fill="#ADD1B2" rx="11" ry="11" style="stroke:#181818;stroke-width:1.0;"/><path d="M450.9372,28.6431 Q450.3562,28.9419 449.717,29.0913 Q449.0779,29.2407 448.3723,29.2407 Q445.8654,29.2407 444.5456,27.5889 Q443.2258,25.937 443.2258,22.8159 Q443.2258,19.6865 444.5456,18.0347 Q445.8654,16.3828 448.3723,16.3828 Q449.0779,16.3828 449.7253,16.5322 Q450.3728,16.6816 450.9372,16.9805 L450.9372,19.7031 Q450.3064,19.1221 449.7129,18.8523 Q449.1194,18.5825 448.4885,18.5825 Q447.1438,18.5825 446.459,19.6492 Q445.7741,20.7158 445.7741,22.8159 Q445.7741,24.9077 446.459,25.9744 Q447.1438,27.041 448.4885,27.041 Q449.1194,27.041 449.7129,26.7712 Q450.3064,26.5015 450.9372,25.9204 Z " fill="#000000"/><text fill="#000000" font-family="sans-serif" font-size="14" lengthAdjust="spacing" textLength="58.8164" x="468.4641" y="28.291">MapDTO</text><line style="stroke:#181818;stroke-width:0.5;" x1="369.78" x2="593.4646" y1="39" y2="39"/><text fill="#000000" font-family="sans-serif" font-size="14" lengthAdjust="spacing" textLength="94.2197" x="374.78" y="56.5352">-name: String</text><text fill="#000000" font-family="sans-serif" font-size="14" lengthAdjust="spacing" textLength="72.502" x="374.78" y="73.0234">-width: int</text><text fill="#000000" font-family="sans-serif" font-size="14" lengthAdjust="spacing" textLength="78.1211" x="374.78" y="89.5117">-height: int</text><text fill="#000000" font-family="sans-serif" font-size="14" lengthAdjust="spacing" textLength="179.3818" x="374.78" y="106">-scaleInKmPerCell: double</text><line style="stroke:#181818;stroke-width:0.5;" x1="369.78" x2="593.4646" y1="112.9531" y2="112.9531"/><text fill="#000000" font-family="sans-serif" font-size="14" lengthAdjust="spacing" textLength="129.7734" x="374.78" y="130.4883">+getName(): String</text><text fill="#000000" font-family="sans-serif" font-size="14" lengthAdjust="spacing" textLength="107.5908" x="374.78" y="146.9766">+getWidth(): int</text><text fill="#000000" font-family="sans-serif" font-size="14" lengthAdjust="spacing" textLength="113.6201" x="374.78" y="163.4648">+getHeight(): int</text><text fill="#000000" font-family="sans-serif" font-size="14" lengthAdjust="spacing" textLength="213.6846" x="374.78" y="179.9531">+getScaleInKmPerCell(): double</text></g><!--class MapMapper--><g id="elem_MapMapper"><rect codeLine="27" fill="#F1F1F1" height="80.9766" id="MapMapper" rx="2.5" ry="2.5" style="stroke:#181818;stroke-width:0.5;" width="226.4775" x="133.38" y="545.35"/><ellipse cx="202.5973" cy="561.35" fill="#ADD1B2" rx="11" ry="11" style="stroke:#181818;stroke-width:1.0;"/><path d="M205.5704,566.9931 Q204.9894,567.2919 204.3502,567.4413 Q203.7111,567.5907 203.0055,567.5907 Q200.4987,567.5907 199.1788,565.9389 Q197.859,564.287 197.859,561.1659 Q197.859,558.0365 199.1788,556.3847 Q200.4987,554.7328 203.0055,554.7328 Q203.7111,554.7328 204.3585,554.8822 Q205.006,555.0316 205.5704,555.3305 L205.5704,558.0531 Q204.9396,557.4721 204.3461,557.2023 Q203.7526,556.9325 203.1217,556.9325 Q201.777,556.9325 201.0922,557.9992 Q200.4073,559.0658 200.4073,561.1659 Q200.4073,563.2577 201.0922,564.3244 Q201.777,565.391 203.1217,565.391 Q203.7526,565.391 204.3461,565.1212 Q204.9396,564.8515 205.5704,564.2704 Z " fill="#000000"/><text fill="#000000" font-family="sans-serif" font-size="14" lengthAdjust="spacing" textLength="79.543" x="223.0973" y="566.641">MapMapper</text><line style="stroke:#181818;stroke-width:0.5;" x1="134.38" x2="358.8575" y1="577.35" y2="577.35"/><line style="stroke:#181818;stroke-width:0.5;" x1="134.38" x2="358.8575" y1="585.35" y2="585.35"/><text fill="#000000" font-family="sans-serif" font-size="14" lengthAdjust="spacing" textLength="214.4775" x="139.38" y="602.8852">+toDomain(dto: MapDTO): Map</text><text fill="#000000" font-family="sans-serif" font-size="14" lengthAdjust="spacing" textLength="199.0352" x="139.38" y="619.3734">+toDTO(map: Map): MapDTO</text></g><!--class MapService--><g id="elem_MapService"><rect codeLine="32" fill="#F1F1F1" height="64.4883" id="MapService" rx="2.5" ry="2.5" style="stroke:#181818;stroke-width:0.5;" width="230.0869" x="133.57" y="387.89"/><ellipse cx="206.3967" cy="403.89" fill="#ADD1B2" rx="11" ry="11" style="stroke:#181818;stroke-width:1.0;"/><path d="M209.3698,409.5331 Q208.7888,409.8319 208.1496,409.9813 Q207.5104,410.1307 206.8049,410.1307 Q204.298,410.1307 202.9782,408.4789 Q201.6584,406.827 201.6584,403.7059 Q201.6584,400.5765 202.9782,398.9247 Q204.298,397.2728 206.8049,397.2728 Q207.5104,397.2728 208.1579,397.4222 Q208.8054,397.5716 209.3698,397.8705 L209.3698,400.5931 Q208.7389,400.0121 208.1454,399.7423 Q207.5519,399.4725 206.9211,399.4725 Q205.5763,399.4725 204.8915,400.5392 Q204.2067,401.6058 204.2067,403.7059 Q204.2067,405.7977 204.8915,406.8644 Q205.5763,407.931 206.9211,407.931 Q207.5519,407.931 208.1454,407.6612 Q208.7389,407.3915 209.3698,406.8104 Z " fill="#000000"/><text fill="#000000" font-family="sans-serif" font-size="14" lengthAdjust="spacing" textLength="75.9336" x="226.8967" y="409.181">MapService</text><line style="stroke:#181818;stroke-width:0.5;" x1="134.57" x2="362.6569" y1="419.89" y2="419.89"/><line style="stroke:#181818;stroke-width:0.5;" x1="134.57" x2="362.6569" y1="427.89" y2="427.89"/><text fill="#000000" font-family="sans-serif" font-size="14" lengthAdjust="spacing" textLength="218.0869" x="139.57" y="445.4252">+createMap(dto: MapDTO): Map</text></g><!--class MapRepository--><g id="elem_MapRepository"><rect codeLine="36" fill="#F1F1F1" height="113.9531" id="MapRepository" rx="2.5" ry="2.5" style="stroke:#181818;stroke-width:0.5;" width="273.085" x="395.08" y="528.86"/><ellipse cx="477.0087" cy="544.86" fill="#ADD1B2" rx="11" ry="11" style="stroke:#181818;stroke-width:1.0;"/><path d="M479.9819,550.5031 Q479.4008,550.8019 478.7616,550.9513 Q478.1225,551.1007 477.4169,551.1007 Q474.9101,551.1007 473.5903,549.4489 Q472.2704,547.797 472.2704,544.6759 Q472.2704,541.5465 473.5903,539.8947 Q474.9101,538.2428 477.4169,538.2428 Q478.1225,538.2428 478.7699,538.3922 Q479.4174,538.5416 479.9819,538.8405 L479.9819,541.5631 Q479.351,540.9821 478.7575,540.7123 Q478.164,540.4425 477.5331,540.4425 Q476.1884,540.4425 475.5036,541.5092 Q474.8188,542.5758 474.8188,544.6759 Q474.8188,546.7677 475.5036,547.8344 Q476.1884,548.901 477.5331,548.901 Q478.164,548.901 478.7575,548.6312 Q479.351,548.3615 479.9819,547.7804 Z " fill="#000000"/><text fill="#000000" font-family="sans-serif" font-size="14" lengthAdjust="spacing" textLength="100.7275" x="497.5087" y="550.151">MapRepository</text><line style="stroke:#181818;stroke-width:0.5;" x1="396.08" x2="667.165" y1="560.86" y2="560.86"/><line style="stroke:#181818;stroke-width:0.5;" x1="396.08" x2="667.165" y1="568.86" y2="568.86"/><text fill="#000000" font-family="sans-serif" font-size="14" lengthAdjust="spacing" textLength="248.4932" x="401.08" y="586.3952">+getMapByName(name: String): Map</text><text fill="#000000" font-family="sans-serif" font-size="14" lengthAdjust="spacing" textLength="261.085" x="401.08" y="602.8834">+validateName(name: String): boolean</text><text fill="#000000" font-family="sans-serif" font-size="14" lengthAdjust="spacing" textLength="204.4014" x="401.08" y="619.3717">+addMap(map: Map): boolean</text><text fill="#000000" font-family="sans-serif" font-size="14" lengthAdjust="spacing" textLength="183.5244" x="401.08" y="635.86">+getAllMaps(): List&lt;Map&gt;;</text></g><!--class Repositories--><g id="elem_Repositories"><rect codeLine="43" fill="#F1F1F1" height="97.4648" id="Repositories" rx="2.5" ry="2.5" style="stroke:#181818;stroke-width:0.5;" width="264.3145" x="399.46" y="371.4"/><ellipse cx="485.4698" cy="387.4" fill="#ADD1B2" rx="11" ry="11" style="stroke:#181818;stroke-width:1.0;"/><path d="M488.4429,393.0431 Q487.8619,393.3419 487.2227,393.4913 Q486.5835,393.6407 485.878,393.6407 Q483.3711,393.6407 482.0513,391.9889 Q480.7315,390.337 480.7315,387.2159 Q480.7315,384.0865 482.0513,382.4347 Q483.3711,380.7828 485.878,380.7828 Q486.5835,380.7828 487.231,380.9322 Q487.8785,381.0816 488.4429,381.3805 L488.4429,384.1031 Q487.8121,383.5221 487.2185,383.2523 Q486.625,382.9825 485.9942,382.9825 Q484.6495,382.9825 483.9646,384.0492 Q483.2798,385.1158 483.2798,387.2159 Q483.2798,389.3077 483.9646,390.3744 Q484.6495,391.441 485.9942,391.441 Q486.625,391.441 487.2185,391.1712 Q487.8121,390.9015 488.4429,390.3204 Z " fill="#000000"/><text fill="#000000" font-family="sans-serif" font-size="14" lengthAdjust="spacing" textLength="83.7949" x="505.9698" y="392.691">Repositories</text><line style="stroke:#181818;stroke-width:0.5;" x1="400.46" x2="662.7745" y1="403.4" y2="403.4"/><line style="stroke:#181818;stroke-width:0.5;" x1="400.46" x2="662.7745" y1="411.4" y2="411.4"/><text fill="#000000" font-family="sans-serif" font-size="14" lengthAdjust="spacing" textLength="101.001" x="405.46" y="428.9352">-Repositories()</text><text fill="#000000" font-family="sans-serif" font-size="14" lengthAdjust="spacing" textLength="191.1396" x="405.46" y="445.4234">+getInstance(): Repositories</text><text fill="#000000" font-family="sans-serif" font-size="14" lengthAdjust="spacing" textLength="252.3145" x="405.46" y="461.9117">+getMapRepository(): MapRepository</text></g><!--class Map--><g id="elem_Map"><rect codeLine="49" fill="#F1F1F1" height="196.3945" id="Map" rx="2.5" ry="2.5" style="stroke:#181818;stroke-width:0.5;" width="479.2363" x="7" y="702.82"/><ellipse cx="228.0674" cy="718.82" fill="#ADD1B2" rx="11" ry="11" style="stroke:#181818;stroke-width:1.0;"/><path d="M231.0405,724.4631 Q230.4595,724.7619 229.8203,724.9113 Q229.1812,725.0607 228.4756,725.0607 Q225.9688,725.0607 224.6489,723.4089 Q223.3291,721.757 223.3291,718.6359 Q223.3291,715.5065 224.6489,713.8547 Q225.9688,712.2028 228.4756,712.2028 Q229.1812,712.2028 229.8286,712.3522 Q230.4761,712.5016 231.0405,712.8005 L231.0405,715.5231 Q230.4097,714.9421 229.8162,714.6723 Q229.2227,714.4025 228.5918,714.4025 Q227.2471,714.4025 226.5623,715.4692 Q225.8774,716.5358 225.8774,718.6359 Q225.8774,720.7277 226.5623,721.7944 Q227.2471,722.861 228.5918,722.861 Q229.2227,722.861 229.8162,722.5912 Q230.4097,722.3215 231.0405,721.7404 Z " fill="#000000"/><text fill="#000000" font-family="sans-serif" font-size="14" lengthAdjust="spacing" textLength="28.6016" x="248.5674" y="724.111">Map</text><line style="stroke:#181818;stroke-width:0.5;" x1="8" x2="485.2363" y1="734.82" y2="734.82"/><text fill="#000000" font-family="sans-serif" font-size="14" lengthAdjust="spacing" textLength="94.2197" x="13" y="752.3552">-name: String</text><text fill="#000000" font-family="sans-serif" font-size="14" lengthAdjust="spacing" textLength="72.502" x="13" y="768.8434">-width: int</text><text fill="#000000" font-family="sans-serif" font-size="14" lengthAdjust="spacing" textLength="78.1211" x="13" y="785.3317">-height: int</text><text fill="#000000" font-family="sans-serif" font-size="14" lengthAdjust="spacing" textLength="179.3818" x="13" y="801.82">-scaleInKmPerCell: double</text><line style="stroke:#181818;stroke-width:0.5;" x1="8" x2="485.2363" y1="808.7731" y2="808.7731"/><text fill="#000000" font-family="sans-serif" font-size="14" lengthAdjust="spacing" textLength="467.2363" x="13" y="826.3083">+Map(name: String, width: int, height: int, scaleInKmPerCell: double)</text><text fill="#000000" font-family="sans-serif" font-size="14" lengthAdjust="spacing" textLength="129.7734" x="13" y="842.7966">+getName(): String</text><text fill="#000000" font-family="sans-serif" font-size="14" lengthAdjust="spacing" textLength="107.5908" x="13" y="859.2848">+getWidth(): int</text><text fill="#000000" font-family="sans-serif" font-size="14" lengthAdjust="spacing" textLength="113.6201" x="13" y="875.7731">+getHeight(): int</text><text fill="#000000" font-family="sans-serif" font-size="14" lengthAdjust="spacing" textLength="213.6846" x="13" y="892.2614">+getScaleInKmPerCell(): double</text></g><!--link CreateMapUI to CreateMapController--><g id="link_CreateMapUI_CreateMapController"><path codeLine="61" d="M248.62,153.98 C248.62,184.46 248.62,215.04 248.62,240.57 " fill="none" id="CreateMapUI-to-CreateMapController" style="stroke:#181818;stroke-width:1.0;"/><polygon fill="#181818" points="248.62,246.57,252.62,237.57,248.62,241.57,244.62,237.57,248.62,246.57" style="stroke:#181818;stroke-width:1.0;"/></g><!--link CreateMapController to MapService--><g id="link_CreateMapController_MapService"><path codeLine="62" d="M248.62,311.69 C248.62,334.43 248.62,359 248.62,381.72 " fill="none" id="CreateMapController-to-MapService" style="stroke:#181818;stroke-width:1.0;"/><polygon fill="#181818" points="248.62,387.72,252.62,378.72,248.62,382.72,244.62,378.72,248.62,387.72" style="stroke:#181818;stroke-width:1.0;"/></g><!--link MapService to MapMapper--><g id="link_MapService_MapMapper"><path codeLine="63" d="M248.23,452.69 C247.91,478.99 247.5219,510.5904 247.1819,538.9604 " fill="none" id="MapService-to-MapMapper" style="stroke:#181818;stroke-width:1.0;"/><polygon fill="#181818" points="247.11,544.96,251.2176,536.0086,247.1699,539.9604,243.2181,535.9127,247.11,544.96" style="stroke:#181818;stroke-width:1.0;"/></g><!--link MapMapper to Map--><g id="link_MapMapper_Map"><path codeLine="64" d="M246.62,626.44 C246.62,647.99 246.62,669.69 246.62,696.6 " fill="none" id="MapMapper-to-Map" style="stroke:#181818;stroke-width:1.0;"/><polygon fill="#181818" points="246.62,702.6,250.62,693.6,246.62,697.6,242.62,693.6,246.62,702.6" style="stroke:#181818;stroke-width:1.0;"/></g><!--link MapService to MapRepository--><g id="link_MapService_MapRepository"><path codeLine="65" d="M303.18,452.69 C340.29,474.16 385.2164,500.1457 429.0564,525.5057 " fill="none" id="MapService-to-MapRepository" style="stroke:#181818;stroke-width:1.0;"/><polygon fill="#181818" points="434.25,528.51,428.4624,520.541,429.922,526.0064,424.4566,527.4659,434.25,528.51" style="stroke:#181818;stroke-width:1.0;"/></g><!--link Repositories to MapRepository--><g id="link_Repositories_MapRepository"><path codeLine="66" d="M531.62,468.92 C531.62,487.61 531.62,503.18 531.62,522.61 " fill="none" id="Repositories-to-MapRepository" style="stroke:#181818;stroke-width:1.0;"/><polygon fill="#181818" points="531.62,528.61,535.62,519.61,531.62,523.61,527.62,519.61,531.62,528.61" style="stroke:#181818;stroke-width:1.0;"/></g><!--SRC=[lLJ1Rjim3BtxAtIqiGJOEHiAPEbXmRQcg5FipCYC8qIMN8b9aGxxzzAAQyk9U-XXCtom7vyUoMVIVgzC3Gug8JLuFoToQdCWN4fhSlM2udFYEqeDSWybvdJIA1nA0bDgZ0X-1uLzLgOKMz0UaoI8YeL38Fm5zUDI_4a4Nv-435YQjQyEdmxeYJctGD31XVArXjF2cgro5P2ovZAM7wH4xnd-UvMFpv6pMgExoCknj20x4qt2zIeB3xt06MtFJ8M12cSYPsjCsKBFgg3TJ2X3BR13LUueHhm4ZKlpexf7jq2jPwAmXmtxTIwaHBfZtJGRA0VyToFU1Dx40lezPBY2yuiq3Q5D5FV3TntPGFRMLg3CY0iTORrAAwW3cBrn1fevkgEI-65l7x2sNf5rf-ueDyA1RwTWIUpteAWZQ5LmYZ7MnbgDO5ec54LJHrJ_CCxvvbfpn3T-_LIUllBBpPU-pgv8XRwRX1Zi1f6rbiRpCiZmDMFEeBk-xVJSLGyCxFctSzVO4WjF8ir9B3TvLodxhoCS_pscqvknxKx6DhxXzaEQHFFQHiuhaVJBqU8ZrEXB3URYElmA]--></g></svg>