<?xml version="1.0" encoding="us-ascii" standalone="no"?><svg xmlns="http://www.w3.org/2000/svg" xmlns:xlink="http://www.w3.org/1999/xlink" contentStyleType="text/css" height="499px" preserveAspectRatio="none" style="width:1086px;height:499px;background:#FFFFFF;" version="1.1" viewBox="0 0 1086 499" width="1086px" zoomAndPan="magnify"><defs/><g><!--class Application--><g id="elem_Application"><rect codeLine="9" fill="#F1F1F1" height="53.2188" id="Application" rx="2.5" ry="2.5" style="stroke:#181818;stroke-width:0.5;" width="75" x="7" y="230"/><text fill="#000000" font-family="sans-serif" font-size="14" lengthAdjust="spacing" textLength="69" x="10" y="249.5332">Application</text><line style="stroke:#181818;stroke-width:0.5;" x1="8" x2="81" y1="257.6094" y2="257.6094"/><text fill="#000000" font-family="sans-serif" font-size="14" lengthAdjust="spacing" textLength="27" x="13" y="276.1426">-title</text></g><!--class User--><g id="elem_User"><rect codeLine="13" fill="#F1F1F1" height="35.6094" id="User" rx="2.5" ry="2.5" style="stroke:#181818;stroke-width:0.5;" width="35" x="165" y="238.5"/><text fill="#000000" font-family="sans-serif" font-size="14" lengthAdjust="spacing" textLength="29" x="168" y="258.0332">User</text><line style="stroke:#181818;stroke-width:0.5;" x1="166" x2="199" y1="266.1094" y2="266.1094"/></g><!--class MainMenu--><g id="elem_MainMenu"><rect codeLine="16" fill="#F1F1F1" height="88.4375" id="MainMenu" rx="2.5" ry="2.5" style="stroke:#181818;stroke-width:0.5;" width="101" x="345.5" y="123.5"/><text fill="#000000" font-family="sans-serif" font-size="14" lengthAdjust="spacing" textLength="65" x="363.5" y="143.0332">MainMenu</text><line style="stroke:#181818;stroke-width:0.5;" x1="346.5" x2="445.5" y1="151.1094" y2="151.1094"/><text fill="#000000" font-family="sans-serif" font-size="14" lengthAdjust="spacing" textLength="89" x="351.5" y="169.6426">-excelFilePath</text><text fill="#000000" font-family="sans-serif" font-size="14" lengthAdjust="spacing" textLength="86" x="351.5" y="187.252">-outputFolder</text><text fill="#000000" font-family="sans-serif" font-size="14" lengthAdjust="spacing" textLength="84" x="351.5" y="204.8613">-imageFolder</text></g><!--class Configuration--><g id="elem_Configuration"><rect codeLine="22" fill="#F1F1F1" height="123.6563" id="Configuration" rx="2.5" ry="2.5" style="stroke:#181818;stroke-width:0.5;" width="184" x="304" y="264.5"/><text fill="#000000" font-family="sans-serif" font-size="14" lengthAdjust="spacing" textLength="85" x="353.5" y="284.0332">Configuration</text><line style="stroke:#181818;stroke-width:0.5;" x1="305" x2="487" y1="292.1094" y2="292.1094"/><text fill="#000000" font-family="sans-serif" font-size="14" lengthAdjust="spacing" textLength="172" x="310" y="310.6426">-maxImagesPerColumn : int</text><text fill="#000000" font-family="sans-serif" font-size="14" lengthAdjust="spacing" textLength="106" x="310" y="328.252">-imageWidth : int</text><text fill="#000000" font-family="sans-serif" font-size="14" lengthAdjust="spacing" textLength="110" x="310" y="345.8613">-imageHeight : int</text><text fill="#000000" font-family="sans-serif" font-size="14" lengthAdjust="spacing" textLength="126" x="310" y="363.4707">-textPosition : String</text><text fill="#000000" font-family="sans-serif" font-size="14" lengthAdjust="spacing" textLength="170" x="310" y="381.0801">-justificationCriteria : String</text></g><!--class ConfigurationRepository--><g id="elem_ConfigurationRepository"><rect codeLine="30" fill="#F1F1F1" height="35.6094" id="ConfigurationRepository" rx="2.5" ry="2.5" style="stroke:#181818;stroke-width:0.5;" width="159" x="600" y="271.5"/><text fill="#000000" font-family="sans-serif" font-size="14" lengthAdjust="spacing" textLength="153" x="603" y="291.0332">ConfigurationRepository</text><line style="stroke:#181818;stroke-width:0.5;" x1="601" x2="758" y1="299.1094" y2="299.1094"/></g><!--class Justification--><g id="elem_Justification"><rect codeLine="33" fill="#F1F1F1" height="70.8281" id="Justification" rx="2.5" ry="2.5" style="stroke:#181818;stroke-width:0.5;" width="163" x="598" y="343"/><text fill="#000000" font-family="sans-serif" font-size="14" lengthAdjust="spacing" textLength="73" x="643" y="362.5332">Justification</text><line style="stroke:#181818;stroke-width:0.5;" x1="599" x2="760" y1="370.6094" y2="370.6094"/><text fill="#000000" font-family="sans-serif" font-size="14" lengthAdjust="spacing" textLength="133" x="604" y="389.1426">-criteriaValue : String</text><text fill="#000000" font-family="sans-serif" font-size="14" lengthAdjust="spacing" textLength="151" x="604" y="406.752">-justificationText : String</text></g><!--class ExcelData--><g id="elem_ExcelData"><rect codeLine="38" fill="#F1F1F1" height="53.2188" id="ExcelData" rx="2.5" ry="2.5" style="stroke:#181818;stroke-width:0.5;" width="113" x="623" y="7"/><text fill="#000000" font-family="sans-serif" font-size="14" lengthAdjust="spacing" textLength="63" x="648" y="26.5332">ExcelData</text><line style="stroke:#181818;stroke-width:0.5;" x1="624" x2="735" y1="34.6094" y2="34.6094"/><text fill="#000000" font-family="sans-serif" font-size="14" lengthAdjust="spacing" textLength="101" x="629" y="53.1426">-filePath : String</text></g><!--class ImageRepository--><g id="elem_ImageRepository"><rect codeLine="43" fill="#F1F1F1" height="53.2188" id="ImageRepository" rx="2.5" ry="2.5" style="stroke:#181818;stroke-width:0.5;" width="131" x="614" y="95"/><text fill="#000000" font-family="sans-serif" font-size="14" lengthAdjust="spacing" textLength="106" x="626.5" y="114.5332">ImageRepository</text><line style="stroke:#181818;stroke-width:0.5;" x1="615" x2="744" y1="122.6094" y2="122.6094"/><text fill="#000000" font-family="sans-serif" font-size="14" lengthAdjust="spacing" textLength="119" x="620" y="141.1426">-folderPath : String</text></g><!--class WordTable--><g id="elem_WordTable"><rect codeLine="48" fill="#F1F1F1" height="53.2188" id="WordTable" rx="2.5" ry="2.5" style="stroke:#181818;stroke-width:0.5;" width="162" x="917" y="146"/><text fill="#000000" font-family="sans-serif" font-size="14" lengthAdjust="spacing" textLength="70" x="963" y="165.5332">WordTable</text><line style="stroke:#181818;stroke-width:0.5;" x1="918" x2="1078" y1="173.6094" y2="173.6094"/><text fill="#000000" font-family="sans-serif" font-size="14" lengthAdjust="spacing" textLength="150" x="923" y="192.1426">-content : TableContent</text></g><!--link Application to User--><g id="link_Application_User"><path codeLine="54" d="M82.3,256.5 C109.21,256.5 138.43,256.5 158.85,256.5 " fill="none" id="Application-to-User" style="stroke:#181818;stroke-width:1.0;"/><polygon fill="#181818" points="164.85,256.5,155.85,252.5,159.85,256.5,155.85,260.5,164.85,256.5" style="stroke:#181818;stroke-width:1.0;"/><text fill="#000000" font-family="sans-serif" font-size="13" lengthAdjust="spacing" textLength="21" x="113" y="252.9951">has</text></g><!--link User to Configuration--><g id="link_User_Configuration"><path codeLine="55" d="M200.1,262 C222.64,269.46 258.9437,281.4753 298.2037,294.4653 " fill="none" id="User-to-Configuration" style="stroke:#181818;stroke-width:1.0;"/><polygon fill="#181818" points="303.9,296.35,296.6121,289.7254,299.1531,294.7794,294.0991,297.3204,303.9,296.35" style="stroke:#181818;stroke-width:1.0;"/><text fill="#000000" font-family="sans-serif" font-size="13" lengthAdjust="spacing" textLength="42" x="231" y="268.9951">access</text></g><!--link User to MainMenu--><g id="link_User_MainMenu"><path codeLine="56" d="M200.1,249.52 C230.97,236.53 292.7899,210.5176 339.6199,190.8076 " fill="none" id="User-to-MainMenu" style="stroke:#181818;stroke-width:1.0;"/><polygon fill="#181818" points="345.15,188.48,335.3031,188.2846,340.5415,190.4196,338.4065,195.6581,345.15,188.48" style="stroke:#181818;stroke-width:1.0;"/><text fill="#000000" font-family="sans-serif" font-size="13" lengthAdjust="spacing" textLength="42" x="231" y="216.9951">access</text></g><!--link Configuration to Justification--><g id="link_Configuration_Justification"><path codeLine="57" d="M488.01,343.32 C523.35,349.84 557.5897,356.1708 591.8797,362.5008 " fill="none" id="Configuration-to-Justification" style="stroke:#181818;stroke-width:1.0;"/><polygon fill="#181818" points="597.78,363.59,589.6557,358.0226,592.8631,362.6823,588.2034,365.8897,597.78,363.59" style="stroke:#181818;stroke-width:1.0;"/><text fill="#000000" font-family="sans-serif" font-size="13" lengthAdjust="spacing" textLength="21" x="532.5" y="344.9951">has</text><text fill="#000000" font-family="sans-serif" font-size="13" lengthAdjust="spacing" textLength="7" x="495.9194" y="358.8993">1</text><text fill="#000000" font-family="sans-serif" font-size="13" lengthAdjust="spacing" textLength="5" x="585.016" y="376.4722">*</text></g><!--link Configuration to ConfigurationRepository--><g id="link_Configuration_ConfigurationRepository"><path codeLine="58" d="M488.01,314.54 C523.99,309.81 559.0012,305.212 593.6912,300.652 " fill="none" id="Configuration-to-ConfigurationRepository" style="stroke:#181818;stroke-width:1.0;"/><polygon fill="#181818" points="599.64,299.87,590.1954,297.0771,594.6826,300.5216,591.2381,305.0088,599.64,299.87" style="stroke:#181818;stroke-width:1.0;"/><text fill="#000000" font-family="sans-serif" font-size="13" lengthAdjust="spacing" textLength="48" x="519" y="300.9951">saves to</text></g><!--link ExcelData to WordTable--><g id="link_ExcelData_WordTable"><path codeLine="59" d="M736.05,52.92 C778.06,68.11 836.87,90.46 887,113.5 C908.26,123.28 925.9005,132.4224 945.2805,143.0624 " fill="none" id="ExcelData-to-WordTable" style="stroke:#181818;stroke-width:1.0;"/><polygon fill="#181818" points="950.54,145.95,944.5758,138.1124,946.1571,143.5437,940.7258,145.125,950.54,145.95" style="stroke:#181818;stroke-width:1.0;"/><text fill="#000000" font-family="sans-serif" font-size="13" lengthAdjust="spacing" textLength="94" x="792" y="70.9951">provides data for</text></g><!--link ImageRepository to WordTable--><g id="link_ImageRepository_WordTable"><path codeLine="60" d="M745.31,131.95 C794.96,139.95 857.7863,150.0764 910.8963,158.6264 " fill="none" id="ImageRepository-to-WordTable" style="stroke:#181818;stroke-width:1.0;"/><polygon fill="#181818" points="916.82,159.58,908.5702,154.2004,911.8836,158.7853,907.2986,162.0987,916.82,159.58" style="stroke:#181818;stroke-width:1.0;"/><text fill="#000000" font-family="sans-serif" font-size="13" lengthAdjust="spacing" textLength="94" x="792" y="135.9951">provides data for</text></g><!--link Configuration to WordTable--><g id="link_Configuration_WordTable"><path codeLine="61" d="M477.71,388.59 C552.76,438.26 666.83,492.99 761,449.5 C875.43,396.67 952.1354,263.3209 981.6154,204.6709 " fill="none" id="Configuration-to-WordTable" style="stroke:#181818;stroke-width:1.0;"/><polygon fill="#181818" points="984.31,199.31,976.6942,205.5549,982.0645,203.7774,983.842,209.1477,984.31,199.31" style="stroke:#181818;stroke-width:1.0;"/><text fill="#000000" font-family="sans-serif" font-size="13" lengthAdjust="spacing" textLength="56" x="651.5" y="445.9951">applies to</text></g><!--link MainMenu to WordTable--><g id="link_MainMenu_WordTable"><path codeLine="62" d="M446.91,172.59 C487.54,176.45 546.41,181.45 598,183.5 C708.44,187.89 830.16,182.8856 910.75,178.2356 " fill="none" id="MainMenu-to-WordTable" style="stroke:#181818;stroke-width:1.0;"/><polygon fill="#181818" points="916.74,177.89,907.5245,174.4151,911.7483,178.178,907.9854,182.4018,916.74,177.89" style="stroke:#181818;stroke-width:1.0;"/><text fill="#000000" font-family="sans-serif" font-size="13" lengthAdjust="spacing" textLength="57" x="651" y="179.9951">generates</text></g><!--link MainMenu to ExcelData--><g id="link_MainMenu_ExcelData"><path codeLine="63" d="M446.68,143.86 C495.92,120.41 565.8225,87.1389 617.1425,62.7089 " fill="none" id="MainMenu-to-ExcelData" style="stroke:#181818;stroke-width:1.0;"/><polygon fill="#181818" points="622.56,60.13,612.7145,60.3867,618.0454,62.2791,616.153,67.61,622.56,60.13" style="stroke:#181818;stroke-width:1.0;"/><text fill="#000000" font-family="sans-serif" font-size="13" lengthAdjust="spacing" textLength="42" x="522" y="84.9951">access</text></g><!--link MainMenu to ImageRepository--><g id="link_MainMenu_ImageRepository"><path codeLine="64" d="M446.68,159.39 C493.24,151.78 557.1886,141.3277 608.0386,133.0177 " fill="none" id="MainMenu-to-ImageRepository" style="stroke:#181818;stroke-width:1.0;"/><polygon fill="#181818" points="613.96,132.05,604.4327,129.5539,609.0255,132.8564,605.723,137.4492,613.96,132.05" style="stroke:#181818;stroke-width:1.0;"/><text fill="#000000" font-family="sans-serif" font-size="13" lengthAdjust="spacing" textLength="42" x="522" y="136.9951">access</text></g><!--SRC=[XLDDRzim3BthLmWvTHi2R5SV1XHPYtL0WM1frpChqpPNMJ8akajNxBzF7uc_ag8-IUJZu-EZx9_8TE2WbQqrLZNEjYWhq1w57r8Tg2UeSSSl6gL3nM1gFGNu1ahxXqnzKgeqU7_9xEYnPxnHrkpeByhFGcF5agrqL3SiIugqP8reg4IfoAdG89rRvCQMNeX49I-xJfE2Y9MlGePlpSG1_E-8kFVeGcgutmAPMpJz4OvxXVgQD6w1cnooFNSzNrjTeiiHQiF0Xy30jB6cehftO_Tr2_kR2FLRT1kh-zR8Gf9XSUHue9ARHUmxfg678EEUjzPJeYtaBhXbwfZutNkcwZ3knX6Z8nWHvuNzn2voMVSoTU77b2fhLmV2Nw1xVBllNL1tfkTLjF4RC6Iowc3ebEUJjb16oCM7iIxPDTCOgvFJP-kplLE61-lAEtWCRp6FOGsZYH9JS9EliRn6Wy4J3CNXvk4PB_AcPuqIy_HPhTTVyoCgP0DUf6ECpTTVI50A_IG_FBGXDQzOVLabtEhZQh6Et6YEFkauyQoGSHWV_XynhY4MZDOKidFsEVn0NfOnMradbjQ_Nt4gQOg7Q5gMCSo-n1ntuEUGKVPWrYo_b3gWXFWF]--></g></svg>