<svg xmlns="http://www.w3.org/2000/svg" xmlns:xlink="http://www.w3.org/1999/xlink" contentStyleType="text/css" height="300px" preserveAspectRatio="none" style="width:519px;height:300px;background:#FFFFFF;" version="1.1" viewBox="0 0 519 300" width="519px" zoomAndPan="magnify"><defs/><g><rect fill="#FFFFFF" height="167.8633" style="stroke:#181818;stroke-width:1.0;" width="10" x="79.5874" y="62.9766"/><rect fill="#FFFFFF" height="29.3105" style="stroke:#181818;stroke-width:1.0;" width="10" x="218.0723" y="84.2871"/><rect fill="#FFFFFF" height="29.3105" style="stroke:#181818;stroke-width:1.0;" width="10" x="328.082" y="142.9082"/><rect fill="#FFFFFF" height="29.3105" style="stroke:#181818;stroke-width:1.0;" width="10" x="448.7729" y="201.5293"/><line style="stroke:#181818;stroke-width:0.5;stroke-dasharray:5.0,5.0;" x1="84" x2="84" y1="52.9766" y2="248.8398"/><line style="stroke:#181818;stroke-width:0.5;stroke-dasharray:5.0,5.0;" x1="222.1748" x2="222.1748" y1="52.9766" y2="248.8398"/><line style="stroke:#181818;stroke-width:0.5;stroke-dasharray:5.0,5.0;" x1="332.9697" x2="332.9697" y1="52.9766" y2="248.8398"/><line style="stroke:#181818;stroke-width:0.5;stroke-dasharray:5.0,5.0;" x1="453.1943" x2="453.1943" y1="52.9766" y2="248.8398"/><rect fill="#E3E3E3" height="30.4883" rx="2.5" ry="2.5" style="stroke:#181818;stroke-width:0.5;" width="159.1748" x="5" y="21.4883"/><text fill="#000000" font-family="sans-serif" font-size="14" lengthAdjust="spacing" textLength="145.1748" x="12" y="42.0234">:CreateMapController</text><rect fill="#E3E3E3" height="30.4883" rx="2.5" ry="2.5" style="stroke:#181818;stroke-width:0.5;" width="159.1748" x="5" y="247.8398"/><text fill="#000000" font-family="sans-serif" font-size="14" lengthAdjust="spacing" textLength="145.1748" x="12" y="268.375">:CreateMapController</text><rect fill="#E3E3E3" height="30.4883" rx="2.5" ry="2.5" style="stroke:#181818;stroke-width:0.5;" width="97.7949" x="174.1748" y="21.4883"/><text fill="#000000" font-family="sans-serif" font-size="14" lengthAdjust="spacing" textLength="83.7949" x="181.1748" y="42.0234">Repositories</text><rect fill="#E3E3E3" height="30.4883" rx="2.5" ry="2.5" style="stroke:#181818;stroke-width:0.5;" width="97.7949" x="174.1748" y="247.8398"/><text fill="#000000" font-family="sans-serif" font-size="14" lengthAdjust="spacing" textLength="83.7949" x="181.1748" y="268.375">Repositories</text><rect fill="#E3E3E3" height="46.9766" rx="2.5" ry="2.5" style="stroke:#181818;stroke-width:0.5;" width="102.2246" x="281.9697" y="5"/><text fill="#000000" font-family="sans-serif" font-size="14" lengthAdjust="spacing" textLength="80.6709" x="292.7466" y="25.5352">repositories</text><text fill="#000000" font-family="sans-serif" font-size="14" lengthAdjust="spacing" textLength="88.2246" x="288.9697" y="42.0234">:Repositories</text><rect fill="#E3E3E3" height="46.9766" rx="2.5" ry="2.5" style="stroke:#181818;stroke-width:0.5;" width="102.2246" x="281.9697" y="247.8398"/><text fill="#000000" font-family="sans-serif" font-size="14" lengthAdjust="spacing" textLength="80.6709" x="292.7466" y="268.375">repositories</text><text fill="#000000" font-family="sans-serif" font-size="14" lengthAdjust="spacing" textLength="88.2246" x="288.9697" y="284.8633">:Repositories</text><rect fill="#E3E3E3" height="46.9766" rx="2.5" ry="2.5" style="stroke:#181818;stroke-width:0.5;" width="119.1572" x="394.1943" y="5"/><text fill="#000000" font-family="sans-serif" font-size="14" lengthAdjust="spacing" textLength="101.7393" x="402.9033" y="25.5352">mapRepository</text><text fill="#000000" font-family="sans-serif" font-size="14" lengthAdjust="spacing" textLength="105.1572" x="401.1943" y="42.0234">:MapRepository</text><rect fill="#E3E3E3" height="46.9766" rx="2.5" ry="2.5" style="stroke:#181818;stroke-width:0.5;" width="119.1572" x="394.1943" y="247.8398"/><text fill="#000000" font-family="sans-serif" font-size="14" lengthAdjust="spacing" textLength="101.7393" x="402.9033" y="268.375">mapRepository</text><text fill="#000000" font-family="sans-serif" font-size="14" lengthAdjust="spacing" textLength="105.1572" x="401.1943" y="284.8633">:MapRepository</text><rect fill="#FFFFFF" height="167.8633" style="stroke:#181818;stroke-width:1.0;" width="10" x="79.5874" y="62.9766"/><rect fill="#FFFFFF" height="29.3105" style="stroke:#181818;stroke-width:1.0;" width="10" x="218.0723" y="84.2871"/><rect fill="#FFFFFF" height="29.3105" style="stroke:#181818;stroke-width:1.0;" width="10" x="328.082" y="142.9082"/><rect fill="#FFFFFF" height="29.3105" style="stroke:#181818;stroke-width:1.0;" width="10" x="448.7729" y="201.5293"/><polygon fill="#181818" points="206.0723,80.2871,216.0723,84.2871,206.0723,88.2871,210.0723,84.2871" style="stroke:#181818;stroke-width:1.0;"/><line style="stroke:#181818;stroke-width:1.0;" x1="89.5874" x2="212.0723" y1="84.2871" y2="84.2871"/><text fill="#000000" font-family="sans-serif" font-size="13" font-weight="bold" lengthAdjust="spacing" textLength="8.5757" x="96.5874" y="79.5449">1</text><text fill="#000000" font-family="sans-serif" font-size="13" lengthAdjust="spacing" textLength="81.1167" x="109.1631" y="79.5449">getInstance()</text><polygon fill="#181818" points="100.5874,109.5977,90.5874,113.5977,100.5874,117.5977,96.5874,113.5977" style="stroke:#181818;stroke-width:1.0;"/><line style="stroke:#181818;stroke-width:1.0;stroke-dasharray:2.0,2.0;" x1="94.5874" x2="222.0723" y1="113.5977" y2="113.5977"/><text fill="#000000" font-family="sans-serif" font-size="13" font-weight="bold" lengthAdjust="spacing" textLength="8.5757" x="106.5874" y="108.8555">2</text><text fill="#000000" font-family="sans-serif" font-size="13" lengthAdjust="spacing" textLength="74.9087" x="119.1631" y="108.8555">repositories</text><polygon fill="#181818" points="316.082,138.9082,326.082,142.9082,316.082,146.9082,320.082,142.9082" style="stroke:#181818;stroke-width:1.0;"/><line style="stroke:#181818;stroke-width:1.0;" x1="89.5874" x2="322.082" y1="142.9082" y2="142.9082"/><text fill="#000000" font-family="sans-serif" font-size="13" font-weight="bold" lengthAdjust="spacing" textLength="8.5757" x="96.5874" y="138.166">3</text><text fill="#000000" font-family="sans-serif" font-size="13" lengthAdjust="spacing" textLength="122.1987" x="109.1631" y="138.166">getMapRepository()</text><polygon fill="#181818" points="100.5874,168.2188,90.5874,172.2188,100.5874,176.2188,96.5874,172.2188" style="stroke:#181818;stroke-width:1.0;"/><line style="stroke:#181818;stroke-width:1.0;stroke-dasharray:2.0,2.0;" x1="94.5874" x2="332.082" y1="172.2188" y2="172.2188"/><text fill="#000000" font-family="sans-serif" font-size="13" font-weight="bold" lengthAdjust="spacing" textLength="8.5757" x="106.5874" y="167.4766">4</text><text fill="#000000" font-family="sans-serif" font-size="13" lengthAdjust="spacing" textLength="94.4722" x="119.1631" y="167.4766">mapRepository</text><polygon fill="#181818" points="436.7729,197.5293,446.7729,201.5293,436.7729,205.5293,440.7729,201.5293" style="stroke:#181818;stroke-width:1.0;"/><line style="stroke:#181818;stroke-width:1.0;" x1="89.5874" x2="442.7729" y1="201.5293" y2="201.5293"/><text fill="#000000" font-family="sans-serif" font-size="13" font-weight="bold" lengthAdjust="spacing" textLength="8.5757" x="96.5874" y="196.7871">5</text><text fill="#000000" font-family="sans-serif" font-size="13" lengthAdjust="spacing" textLength="157.168" x="109.1631" y="196.7871">validateName(mapName)</text><polygon fill="#181818" points="95.5874,226.8398,85.5874,230.8398,95.5874,234.8398,91.5874,230.8398" style="stroke:#181818;stroke-width:1.0;"/><line style="stroke:#181818;stroke-width:1.0;stroke-dasharray:2.0,2.0;" x1="89.5874" x2="452.7729" y1="230.8398" y2="230.8398"/><text fill="#000000" font-family="sans-serif" font-size="13" font-weight="bold" lengthAdjust="spacing" textLength="8.5757" x="101.5874" y="226.0977">6</text><text fill="#000000" font-family="sans-serif" font-size="13" lengthAdjust="spacing" textLength="35.1089" x="114.1631" y="226.0977">(void)</text><!--SRC=[RP3BReCm44NtVCKeAxB83x28LA6eYXH815bMYgOm9LR0jcn3bR-lWSQrAMnutNFdUFI3SOaAE-W45zLTYOx0g9uYxVv8h1xOK6cUBO6YoY1lMZ-WxrYBRyOR-C9MKuIz4RplFab5aKqOLZ69tC0cIHMXeGnbAhXHecr9RG0rfDVY54OBaa8p8nGZFKMAm-LSXXdbPJvuiexSocF-VZfSpta8ToWTyBHqvhzFUFPskOqLKOILOOCLdpt1NkC3xFRp24YW8NFascwcedWx9HmpYyFlDGCxYquL2VY7c58rBT3_0__ED8yEt5VdUri8JBmcpodOpQgKrnVelNPcImPiMMs173kARUDuNwYv3R-S7Ex9n8DWzNPfuL3lsmZy0000]--></g></svg>