<svg xmlns="http://www.w3.org/2000/svg" xmlns:xlink="http://www.w3.org/1999/xlink" contentStyleType="text/css" height="357px" preserveAspectRatio="none" style="width:795px;height:357px;background:#FFFFFF;" version="1.1" viewBox="0 0 795 357" width="795px" zoomAndPan="magnify"><defs/><g><rect fill="#FFFFFF" height="137.9082" style="stroke:#181818;stroke-width:1.0;" width="10" x="79.5874" y="91.4883"/><rect fill="#FFFFFF" height="29.3105" style="stroke:#181818;stroke-width:1.0;" width="10" x="439.8379" y="170.7754"/><line style="stroke:#181818;stroke-width:0.5;stroke-dasharray:5.0,5.0;" x1="84" x2="84" y1="81.4883" y2="276.707"/><line style="stroke:#181818;stroke-width:0.5;stroke-dasharray:5.0,5.0;" x1="351.228" x2="351.228" y1="130.4766" y2="276.707"/><line style="stroke:#181818;stroke-width:0.5;stroke-dasharray:5.0,5.0;" x1="444.2593" x2="444.2593" y1="81.4883" y2="276.707"/><line style="stroke:#181818;stroke-width:0.5;stroke-dasharray:5.0,5.0;" x1="566.4165" x2="566.4165" y1="81.4883" y2="276.707"/><line style="stroke:#181818;stroke-width:0.5;stroke-dasharray:5.0,5.0;" x1="771.7827" x2="771.7827" y1="81.4883" y2="276.707"/><rect fill="#E3E3E3" height="30.4883" rx="2.5" ry="2.5" style="stroke:#181818;stroke-width:0.5;" width="159.1748" x="5" y="50"/><text fill="#000000" font-family="sans-serif" font-size="14" lengthAdjust="spacing" textLength="145.1748" x="12" y="70.5352">:CreateMapController</text><rect fill="#E3E3E3" height="30.4883" rx="2.5" ry="2.5" style="stroke:#181818;stroke-width:0.5;" width="159.1748" x="5" y="275.707"/><text fill="#000000" font-family="sans-serif" font-size="14" lengthAdjust="spacing" textLength="145.1748" x="12" y="296.2422">:CreateMapController</text><rect fill="#E3E3E3" height="46.9766" rx="2.5" ry="2.5" style="stroke:#181818;stroke-width:0.5;" width="47.0313" x="328.228" y="275.707"/><text fill="#000000" font-family="sans-serif" font-size="14" lengthAdjust="spacing" textLength="29.6133" x="336.937" y="296.2422">map</text><text fill="#000000" font-family="sans-serif" font-size="14" lengthAdjust="spacing" textLength="33.0313" x="335.228" y="312.7305">:Map</text><rect fill="#E3E3E3" height="46.9766" rx="2.5" ry="2.5" style="stroke:#181818;stroke-width:0.5;" width="119.1572" x="385.2593" y="33.5117"/><text fill="#000000" font-family="sans-serif" font-size="14" lengthAdjust="spacing" textLength="101.7393" x="393.9683" y="54.0469">mapRepository</text><text fill="#000000" font-family="sans-serif" font-size="14" lengthAdjust="spacing" textLength="105.1572" x="392.2593" y="70.5352">:MapRepository</text><rect fill="#E3E3E3" height="46.9766" rx="2.5" ry="2.5" style="stroke:#181818;stroke-width:0.5;" width="119.1572" x="385.2593" y="275.707"/><text fill="#000000" font-family="sans-serif" font-size="14" lengthAdjust="spacing" textLength="101.7393" x="393.9683" y="296.2422">mapRepository</text><text fill="#000000" font-family="sans-serif" font-size="14" lengthAdjust="spacing" textLength="105.1572" x="392.2593" y="312.7305">:MapRepository</text><rect fill="#E3E3E3" height="30.4883" rx="2.5" ry="2.5" style="stroke:#181818;stroke-width:0.5;" width="104.7471" x="514.4165" y="50"/><text fill="#000000" font-family="sans-serif" font-size="14" lengthAdjust="spacing" textLength="90.7471" x="521.4165" y="70.5352">:CreateMapUI</text><rect fill="#E3E3E3" height="30.4883" rx="2.5" ry="2.5" style="stroke:#181818;stroke-width:0.5;" width="104.7471" x="514.4165" y="275.707"/><text fill="#000000" font-family="sans-serif" font-size="14" lengthAdjust="spacing" textLength="90.7471" x="521.4165" y="296.2422">:CreateMapUI</text><text fill="#000000" font-family="sans-serif" font-size="14" lengthAdjust="spacing" textLength="40.0107" x="748.7827" y="78.5352">Editor</text><ellipse cx="771.7881" cy="13.5" fill="#E3E3E3" rx="8" ry="8" style="stroke:#181818;stroke-width:0.5;"/><path d="M771.7881,21.5 L771.7881,48.5 M758.7881,29.5 L784.7881,29.5 M771.7881,48.5 L758.7881,63.5 M771.7881,48.5 L784.7881,63.5 " fill="none" style="stroke:#181818;stroke-width:0.5;"/><text fill="#000000" font-family="sans-serif" font-size="14" lengthAdjust="spacing" textLength="40.0107" x="748.7827" y="289.2422">Editor</text><ellipse cx="771.7881" cy="300.6953" fill="#E3E3E3" rx="8" ry="8" style="stroke:#181818;stroke-width:0.5;"/><path d="M771.7881,308.6953 L771.7881,335.6953 M758.7881,316.6953 L784.7881,316.6953 M771.7881,335.6953 L758.7881,350.6953 M771.7881,335.6953 L784.7881,350.6953 " fill="none" style="stroke:#181818;stroke-width:0.5;"/><rect fill="#FFFFFF" height="137.9082" style="stroke:#181818;stroke-width:1.0;" width="10" x="79.5874" y="91.4883"/><rect fill="#FFFFFF" height="29.3105" style="stroke:#181818;stroke-width:1.0;" width="10" x="439.8379" y="170.7754"/><polygon fill="#181818" points="316.228,108.7988,326.228,112.7988,316.228,116.7988,320.228,112.7988" style="stroke:#181818;stroke-width:1.0;"/><line style="stroke:#181818;stroke-width:1.0;" x1="89.5874" x2="322.228" y1="112.7988" y2="112.7988"/><text fill="#000000" font-family="sans-serif" font-size="13" font-weight="bold" lengthAdjust="spacing" textLength="8.5757" x="96.5874" y="108.0566">1</text><text fill="#000000" font-family="sans-serif" font-size="13" lengthAdjust="spacing" textLength="202.0649" x="109.1631" y="108.0566">create(mapName, width, height)</text><rect fill="#E3E3E3" height="46.9766" rx="2.5" ry="2.5" style="stroke:#181818;stroke-width:0.5;" width="47.0313" x="328.228" y="91.4883"/><text fill="#000000" font-family="sans-serif" font-size="14" lengthAdjust="spacing" textLength="29.6133" x="336.937" y="112.0234">map</text><text fill="#000000" font-family="sans-serif" font-size="14" lengthAdjust="spacing" textLength="33.0313" x="335.228" y="128.5117">:Map</text><polygon fill="#181818" points="427.8379,166.7754,437.8379,170.7754,427.8379,174.7754,431.8379,170.7754" style="stroke:#181818;stroke-width:1.0;"/><line style="stroke:#181818;stroke-width:1.0;" x1="89.5874" x2="433.8379" y1="170.7754" y2="170.7754"/><text fill="#000000" font-family="sans-serif" font-size="13" font-weight="bold" lengthAdjust="spacing" textLength="8.5757" x="96.5874" y="166.0332">2</text><text fill="#000000" font-family="sans-serif" font-size="13" lengthAdjust="spacing" textLength="86.0552" x="109.1631" y="166.0332">addMap(map)</text><polygon fill="#181818" points="100.5874,196.0859,90.5874,200.0859,100.5874,204.0859,96.5874,200.0859" style="stroke:#181818;stroke-width:1.0;"/><line style="stroke:#181818;stroke-width:1.0;stroke-dasharray:2.0,2.0;" x1="94.5874" x2="443.8379" y1="200.0859" y2="200.0859"/><text fill="#000000" font-family="sans-serif" font-size="13" font-weight="bold" lengthAdjust="spacing" textLength="8.5757" x="106.5874" y="195.3438">3</text><text fill="#000000" font-family="sans-serif" font-size="13" lengthAdjust="spacing" textLength="48.5088" x="119.1631" y="195.3438">success</text><polygon fill="#181818" points="554.79,225.3965,564.79,229.3965,554.79,233.3965,558.79,229.3965" style="stroke:#181818;stroke-width:1.0;"/><line style="stroke:#181818;stroke-width:1.0;stroke-dasharray:2.0,2.0;" x1="84.5874" x2="560.79" y1="229.3965" y2="229.3965"/><text fill="#000000" font-family="sans-serif" font-size="13" font-weight="bold" lengthAdjust="spacing" textLength="8.5757" x="91.5874" y="224.6543">4</text><text fill="#000000" font-family="sans-serif" font-size="13" lengthAdjust="spacing" textLength="27.498" x="104.1631" y="224.6543">map</text><polygon fill="#181818" points="759.7881,254.707,769.7881,258.707,759.7881,262.707,763.7881,258.707" style="stroke:#181818;stroke-width:1.0;"/><line style="stroke:#181818;stroke-width:1.0;stroke-dasharray:2.0,2.0;" x1="566.79" x2="765.7881" y1="258.707" y2="258.707"/><text fill="#000000" font-family="sans-serif" font-size="13" font-weight="bold" lengthAdjust="spacing" textLength="8.5757" x="573.79" y="253.9648">5</text><text fill="#000000" font-family="sans-serif" font-size="13" lengthAdjust="spacing" textLength="168.4224" x="586.3657" y="253.9648">displays operation success</text><!--SRC=[TOz1JiCm44NtFiKeArgr5yW22OKi8b5QXNQ7X0PxIAmcjcKxLBqz4uU6GeLNYVzxCz_Xg8r3ZptqrbZPUjiJH3-G27FYK1wnePTuxWWyoOYcwQw1qAAo9sqQ-C0kaC0XMZFqx-I5O29ggHsQ25bUUC986tI5DT7RhYEV0GOezlNJRxH7zsfo9bE-UTZTn3Kv6tIq_Zo1F_yNvQqkTzl_6XogX1qgWP8bo4erokcoVApssrgCYVvaVEe7VCOFMD-FqvTBo46cSNTSvnbxMi59gzYke2NTj74X_Zgf4Mke55SOjKL2vaLpQ_W-ixJc2MbI3c6Gaa98ZA9RzsehIuUA5Tuahj3q7i7924olPKZfu3ey1x2EF4PjpMNL5m00]--></g></svg>